<?xml version="1.0" standalone="no"?>
<!DOCTYPE svg PUBLIC "-//W3C//DTD SVG 20010904//EN"
 "http://www.w3.org/TR/2001/REC-SVG-20010904/DTD/svg10.dtd">
<svg version="1.0" xmlns="http://www.w3.org/2000/svg"
 width="1024.000000pt" height="1024.000000pt" viewBox="0 0 1024.000000 1024.000000"
 preserveAspectRatio="xMidYMid meet">

<g transform="translate(0.000000,1024.000000) scale(0.100000,-0.100000)"
fill="#ffffff" stroke="none">
<path d="M5111 9437 l-1 -49 -37 3 c-21 2 -41 8 -45 14 -19 26 -5 -22 18 -65
34 -62 62 -78 98 -55 29 19 72 83 62 92 -3 4 -6 1 -6 -5 0 -7 -9 -12 -19 -12
-17 0 -19 4 -10 32 13 46 12 47 -15 13 l-24 -30 -6 25 c-3 14 -7 39 -9 55 -3
19 -5 13 -6 -18z"/>
<path d="M4625 9220 c3 -14 10 -37 13 -51 4 -14 24 -45 45 -70 37 -42 39 -43
53 -25 17 23 18 60 4 87 -14 26 -30 24 -30 -3 -1 -20 -2 -21 -13 -7 -7 8 -27
33 -46 55 -28 33 -32 35 -26 14z"/>
<path d="M5545 9160 c-14 -23 -30 -38 -36 -34 -8 4 -9 -1 -4 -17 13 -42 21
-40 48 8 18 32 27 41 27 28 0 -11 16 -65 35 -120 35 -99 41 -152 25 -190 -5
-11 -9 -15 -9 -10 -1 6 -21 10 -45 10 -25 0 -42 -4 -39 -9 4 -5 1 -6 -6 -2 -7
5 -21 0 -32 -10 -21 -19 -24 -9 -9 30 5 14 6 26 1 26 -5 0 -16 -20 -25 -44
-22 -58 -42 -75 -62 -54 -12 12 -13 23 -5 59 12 50 14 119 3 83 -7 -21 -17
-22 -70 -9 -24 6 -24 7 -6 21 24 20 -1 7 -46 -24 -19 -13 -38 -28 -42 -35 -16
-26 -17 5 -2 77 9 43 14 80 11 82 -5 6 -82 -166 -94 -211 -6 -23 -9 -8 -13 65
l-5 95 -18 -30 -18 -30 6 89 c3 49 8 101 12 115 12 49 -28 2 -62 -74 l-32 -69
-16 44 -17 45 3 -36 c2 -29 0 -36 -13 -31 -12 4 -13 2 -2 -9 21 -22 13 -28
-18 -13 -54 27 -118 124 -121 184 -1 16 -7 4 -15 -30 -21 -79 -12 -137 37
-230 l41 -80 89 0 90 0 -3 -112 c-3 -104 -5 -113 -23 -116 -66 -10 -65 -9 -49
-47 16 -38 19 -105 5 -105 -5 0 -11 10 -15 23 -3 13 -21 41 -41 62 l-36 40 21
-35 c11 -19 20 -46 20 -58 l0 -24 -47 27 c-27 15 -64 39 -83 54 l-35 26 33
-42 c17 -22 32 -43 32 -46 0 -3 -21 -7 -46 -9 -43 -3 -49 -1 -71 29 -19 25
-28 54 -37 125 -6 51 -15 99 -19 106 -11 17 -11 16 79 -22 l79 -35 3 85 c2 69
6 84 19 84 13 0 13 3 3 15 -9 11 -15 13 -20 5 -4 -7 -13 2 -21 22 l-14 33 -10
-50 c-14 -64 -35 -70 -60 -15 -22 48 -27 48 -16 -3 7 -29 6 -37 -6 -37 -21 0
-75 29 -105 58 -39 36 -35 12 9 -45 20 -26 27 -40 16 -30 -11 9 -27 17 -36 17
-22 0 -39 34 -41 81 -1 45 -3 47 -15 17 -8 -21 -11 -18 -34 32 -14 30 -27 52
-28 48 -1 -5 -3 -12 -4 -18 -1 -5 -3 -13 -4 -17 0 -4 -14 8 -29 25 -16 18 -31
32 -34 32 -4 0 0 -21 8 -47 8 -27 13 -54 12 -62 -5 -22 -70 40 -119 112 -38
57 -41 59 -34 27 7 -33 7 -34 -11 -20 -10 8 -15 10 -11 4 4 -7 0 -11 -11 -10
-14 1 -17 -8 -16 -59 1 -74 25 -123 90 -185 l47 -45 -32 -3 c-24 -3 -44 6 -84
34 -28 21 -45 29 -36 19 23 -28 49 -81 49 -100 0 -15 -2 -15 -22 -1 -27 19
-49 21 -24 3 16 -12 10 -13 -41 -7 -86 10 -155 36 -187 69 -26 27 -27 31 -24
127 3 108 -9 154 -48 175 -24 12 -34 37 -34 81 0 25 -15 46 -26 35 -3 -3 -10
-37 -15 -76 -12 -89 6 -163 57 -232 21 -30 34 -58 34 -78 0 -37 -3 -38 -43 -9
-17 12 -27 16 -23 9 16 -25 34 -110 24 -113 -6 -2 -6 -19 0 -46 l10 -43 -94
91 c-52 50 -100 90 -107 87 -7 -2 -14 -12 -16 -23 -2 -10 -9 -28 -17 -38 -13
-19 -13 -19 -13 0 0 10 -4 41 -9 69 -5 27 -7 57 -5 65 4 13 4 13 -6 0 -13 -18
-14 -117 -2 -177 5 -24 6 -43 3 -43 -3 0 -29 13 -58 30 -35 20 -51 25 -48 15
10 -24 -6 -17 -16 8 -8 16 -9 0 -7 -59 3 -60 12 -106 37 -177 19 -53 31 -100
27 -104 -4 -4 -38 7 -75 25 -37 18 -56 24 -42 15 37 -24 175 -164 189 -191 12
-23 12 -23 -11 -11 -13 7 -48 29 -78 49 -30 21 -102 63 -159 95 -118 67 -254
164 -271 194 -14 27 -27 27 -34 -1 -2 -13 -4 -6 -2 15 1 20 -2 37 -6 37 -4 0
-8 -21 -8 -47 0 -83 20 -176 49 -237 l29 -58 -34 5 c-51 8 -43 -16 10 -32 70
-20 151 -77 185 -128 38 -57 40 -81 5 -48 -47 44 -96 46 -57 2 20 -22 37 -57
28 -57 -3 0 -13 4 -23 9 -100 53 -162 77 -158 62 3 -9 10 -43 16 -76 6 -33 18
-82 26 -109 8 -27 12 -51 10 -53 -12 -13 -42 19 -72 78 -36 72 -43 80 -43 52
-1 -26 -13 -83 -18 -83 -12 0 -73 37 -110 67 -33 27 -43 41 -43 64 0 18 -4 28
-10 24 -5 -3 -10 -16 -10 -27 0 -21 -1 -21 -27 3 -16 14 -37 32 -48 40 -17 12
-16 9 4 -19 13 -18 29 -54 36 -80 7 -26 16 -56 20 -67 5 -15 4 -17 -3 -6 -6 8
-16 16 -24 17 -37 6 -303 128 -335 154 -27 21 -43 19 -43 -6 0 -9 14 -49 31
-90 64 -152 173 -231 350 -249 52 -6 60 -10 96 -53 l40 -47 -171 2 c-94 1
-177 -1 -184 -6 -10 -6 -2 -28 35 -96 58 -105 129 -183 200 -216 29 -13 52
-26 52 -29 0 -3 -26 -18 -59 -34 -33 -17 -84 -50 -115 -74 -53 -42 -54 -44
-37 -60 10 -10 46 -48 79 -87 l61 -70 -72 0 c-57 -1 -86 -7 -147 -33 -123 -53
-121 -46 -36 -134 85 -89 121 -108 225 -115 62 -5 81 -11 117 -37 24 -17 78
-57 121 -88 44 -32 99 -64 123 -73 66 -22 158 -19 248 10 l78 25 125 -50 c153
-60 234 -75 337 -60 95 13 210 13 218 0 7 -11 -76 -51 -141 -69 -21 -6 -88
-18 -149 -26 -157 -23 -170 -28 -202 -83 -14 -26 -35 -62 -46 -80 l-19 -32 51
20 c28 11 74 29 101 40 28 11 53 20 56 20 2 0 -7 -17 -20 -37 -42 -63 -43
-106 -5 -232 18 -61 38 -111 44 -111 22 0 124 112 150 163 29 60 34 146 10
204 -18 44 -18 43 1 43 8 0 70 18 137 41 118 40 123 40 182 29 209 -41 366
-224 410 -480 9 -47 23 -112 32 -145 10 -33 16 -87 15 -120 -1 -37 5 -86 18
-130 l21 -70 -41 -225 c-49 -270 -73 -366 -113 -444 -32 -66 -98 -161 -131
-189 -37 -32 -165 -88 -214 -93 -26 -3 -487 -6 -1024 -7 l-977 -2 -94 -92 -94
-93 -279 0 c-229 1 -282 3 -298 15 -33 25 -88 19 -119 -13 -38 -39 -36 -82 4
-116 41 -35 92 -35 123 -1 l23 25 289 0 289 0 90 90 90 90 455 0 455 -1 -54
-49 -55 -50 -305 -1 c-168 0 -330 -4 -360 -8 l-55 -8 -190 -197 -191 -197 -68
1 c-57 0 -74 4 -101 25 -18 14 -44 25 -58 25 -35 0 -74 -34 -88 -76 -11 -32
-10 -40 7 -63 31 -41 67 -55 108 -41 19 6 40 20 45 31 9 17 22 19 105 19 l94
0 196 198 195 197 349 0 348 0 104 97 104 98 493 0 c270 0 492 -2 492 -4 0 -2
-57 -18 -127 -35 -113 -26 -176 -37 -328 -55 -22 -3 -129 -5 -237 -6 l-196 0
-108 -100 -109 -100 -350 0 -350 0 -238 -240 -238 -240 -87 0 c-67 0 -97 5
-126 19 -37 19 -50 19 -92 -1 -47 -22 -58 -95 -19 -133 31 -32 96 -34 125 -5
11 11 20 25 20 30 0 6 44 10 113 10 l112 0 235 235 235 235 350 0 350 0 107
100 106 100 89 -1 88 0 -155 -149 -155 -150 -250 0 -250 0 -142 -145 -142
-145 -51 0 c-37 0 -59 6 -77 20 -60 47 -143 8 -143 -68 0 -73 83 -109 143 -62
20 16 40 20 94 20 l68 0 145 145 145 145 250 0 250 1 175 169 c96 93 184 172
195 175 12 4 48 5 80 3 l60 -3 -226 -228 -226 -227 -234 0 -234 0 -168 -175
-169 -175 -57 0 c-48 0 -61 4 -81 25 -34 36 -101 35 -137 -1 -21 -21 -36 -26
-79 -27 -46 -1 -56 3 -82 30 -77 84 -209 39 -219 -74 -5 -42 -1 -53 22 -81 53
-63 138 -60 196 5 29 33 38 37 90 41 41 3 59 1 59 -7 0 -15 60 -41 93 -41 14
0 36 9 50 20 20 16 40 20 105 20 l81 0 148 155 c81 86 165 167 185 181 l37 26
216 -3 216 -3 272 271 272 271 100 5 c55 3 109 9 119 13 16 6 17 3 11 -27 -15
-69 -57 -139 -150 -244 l-95 -108 0 -82 0 -82 -100 -92 -100 -93 0 -203 c0
-201 0 -205 -25 -241 -34 -50 -33 -86 6 -118 44 -37 80 -34 118 9 36 41 34 73
-6 116 -23 25 -24 29 -23 210 l1 184 100 95 99 95 0 51 c0 28 3 72 6 97 6 44
9 47 68 78 89 47 224 139 297 203 70 61 84 68 73 34 -18 -61 -77 -138 -211
-279 l-73 -76 0 -435 0 -435 -118 -111 c-126 -118 -142 -124 -142 -53 0 28 11
47 60 102 l60 67 0 270 0 271 45 37 45 36 0 130 c0 118 2 133 26 179 14 28 24
55 22 60 -2 5 -31 -17 -65 -49 l-63 -57 0 -111 0 -110 -45 -44 -45 -44 0 -272
0 -273 -60 -52 c-59 -51 -60 -53 -60 -105 0 -53 -16 -84 -45 -84 -22 0 -75
-63 -86 -103 -13 -51 2 -97 46 -136 61 -53 127 -53 191 3 33 28 38 38 42 89
l4 57 134 133 134 132 4 200 c2 110 5 306 5 436 l1 237 92 93 91 92 -6 -51
c-3 -29 -22 -89 -42 -134 l-36 -83 3 -422 3 -423 -147 -147 -148 -148 0 -52
c0 -42 -4 -53 -19 -58 -11 -3 -36 -24 -55 -45 -33 -37 -36 -45 -36 -102 0 -60
1 -63 45 -104 l45 -41 0 -315 0 -314 -35 -17 c-43 -21 -66 -56 -72 -110 -10
-86 49 -147 142 -147 68 0 108 26 130 84 25 64 14 111 -37 159 l-40 38 -5 197
c-3 108 -2 250 2 315 l7 118 34 14 c46 19 74 68 74 128 0 57 -21 97 -61 121
-25 15 -29 23 -29 60 0 43 2 45 145 182 l145 139 0 419 0 419 47 89 c60 114
138 210 307 378 l136 135 0 -48 c0 -45 -4 -51 -79 -135 -43 -48 -98 -105 -121
-127 -23 -22 -69 -72 -101 -112 l-60 -72 1 -1133 0 -1133 -37 -20 c-55 -29
-85 -87 -80 -153 4 -59 25 -94 78 -130 29 -20 44 -23 96 -20 98 6 154 58 160
150 5 72 -25 124 -90 158 l-49 25 4 1100 c4 1209 -1 1114 63 1190 l25 30 0
-311 c0 -341 -2 -328 62 -353 26 -10 27 -9 30 27 3 33 6 37 33 39 22 2 39 -5
62 -27 l33 -30 7 -323 6 -323 -36 -22 c-103 -60 -104 -213 -2 -273 l35 -21 0
-212 0 -213 -37 -24 c-96 -61 -94 -193 3 -251 l34 -20 0 -164 0 -164 -33 -13
c-63 -27 -117 -112 -117 -185 0 -31 27 -92 53 -121 29 -31 94 -61 136 -61 74
0 158 69 181 151 21 73 -30 178 -105 213 l-35 17 0 162 0 163 45 37 c55 46 72
94 56 154 -11 39 -68 103 -91 103 -6 0 -10 83 -10 213 l0 212 36 29 c51 40 74
83 74 136 0 56 -28 103 -76 132 l-37 22 8 330 c7 316 8 332 28 354 15 16 32
22 64 22 40 0 43 -2 33 -19 -14 -28 -12 -48 6 -55 16 -6 63 19 78 43 5 8 8
143 7 300 l-1 286 20 -25 c11 -14 34 -51 50 -82 l30 -58 0 -1059 -1 -1059 -26
-7 c-72 -18 -113 -79 -113 -168 0 -100 68 -161 171 -155 67 5 111 33 140 91
39 76 14 165 -59 212 l-31 20 0 1170 0 1170 65 -70 64 -70 -1 -440 -1 -439
140 -141 c116 -116 141 -146 146 -177 6 -34 4 -38 -24 -53 -43 -22 -74 -87
-67 -143 6 -52 29 -88 80 -121 l37 -24 0 -313 0 -313 -29 -15 c-80 -42 -91
-154 -21 -221 40 -38 128 -46 176 -17 69 44 84 155 28 213 -15 16 -36 31 -46
35 -17 5 -18 24 -18 323 l0 319 34 26 c40 30 60 83 53 138 -7 51 -28 82 -77
113 -38 24 -40 27 -40 78 l0 52 -145 145 -145 145 0 440 0 440 -70 73 c-38 39
-78 72 -89 72 -21 0 -57 43 -90 107 -27 55 -27 56 12 34 17 -10 63 -29 102
-41 54 -18 77 -32 105 -64 19 -22 59 -66 88 -97 l52 -56 0 -423 0 -423 140
-142 c140 -141 140 -141 140 -188 0 -38 6 -53 31 -82 88 -100 249 -42 249 90
0 67 -61 145 -113 145 -16 0 -27 41 -27 100 0 33 -6 43 -56 86 l-57 48 5 273
5 274 -59 66 -58 66 2 68 3 69 -44 42 c-26 26 -41 35 -36 23 5 -11 10 -74 13
-140 l4 -119 44 -52 44 -51 0 -279 0 -280 60 -59 c64 -63 76 -100 46 -140 -13
-19 -21 -13 -130 95 l-116 114 0 432 0 432 -61 56 c-33 31 -54 56 -47 56 7 0
68 -7 136 -17 l122 -16 -1 -66 -1 -66 108 -108 107 -109 -7 -200 c-6 -194 -7
-201 -31 -230 -29 -34 -31 -57 -10 -97 24 -47 83 -56 129 -20 33 26 36 84 5
123 -20 25 -20 33 -13 241 l7 216 -112 113 -111 113 0 67 c0 56 -3 69 -22 84
-42 33 -194 176 -271 255 -68 69 -75 79 -50 73 15 -3 98 -9 183 -12 l155 -7
262 -263 262 -264 233 0 233 0 185 -180 184 -180 81 0 c54 -1 86 -5 99 -15 27
-20 119 -20 136 0 8 10 31 15 71 15 50 0 59 -3 64 -21 9 -28 63 -59 105 -59
107 0 158 130 80 205 -22 21 -42 29 -80 33 -49 4 -52 3 -90 -37 -50 -53 -95
-56 -147 -11 -44 39 -89 40 -133 3 -28 -23 -40 -26 -93 -24 l-62 2 -178 177
-177 177 -233 0 -232 0 -222 219 c-123 121 -223 224 -223 228 0 10 118 9 143
0 10 -4 96 -83 192 -175 l173 -167 250 0 250 0 145 -145 145 -145 75 0 c53 0
78 -4 84 -14 11 -18 47 -36 72 -36 11 0 33 12 50 26 65 54 26 154 -59 154 -24
0 -43 -7 -55 -20 -14 -16 -31 -20 -75 -20 l-58 0 -139 145 -140 146 -252 -2
-252 -2 -142 139 c-78 77 -146 145 -150 152 -6 9 11 12 73 12 l80 0 88 -79
c48 -43 96 -88 106 -100 19 -21 24 -21 371 -21 l352 0 144 -142 c80 -79 183
-185 231 -235 l86 -93 106 0 107 0 33 -35 c36 -38 62 -43 106 -20 85 44 57
165 -38 165 -21 0 -47 -7 -58 -15 -13 -10 -46 -14 -110 -15 l-91 0 -236 240
-236 240 -355 0 -355 0 -105 100 -105 100 -123 0 c-70 0 -155 7 -198 15 -41 8
-167 20 -280 25 -281 14 -396 37 -508 101 -62 35 -65 48 -5 18 23 -11 83 -29
135 -39 84 -18 138 -20 577 -20 l484 0 102 -95 103 -95 354 0 354 0 198 -200
198 -200 88 0 c67 0 91 -4 101 -16 59 -72 169 -39 172 51 1 30 -5 43 -31 66
-18 16 -44 29 -58 29 -29 0 -84 -26 -84 -40 0 -6 -31 -10 -68 -10 l-69 0 -202
205 -202 205 -356 0 -356 0 -53 50 -53 50 451 0 450 0 93 -90 93 -90 292 0
293 0 23 -25 c17 -18 33 -25 62 -25 84 0 121 93 59 150 -26 24 -98 27 -117 5
-11 -13 -56 -15 -294 -15 l-281 0 -95 95 -94 95 -1002 0 c-1073 0 -1021 -3
-1123 50 -69 35 -205 172 -231 233 -44 102 -99 342 -150 656 l-20 125 45 76
c56 96 75 149 75 213 l0 50 -36 -46 c-20 -26 -38 -47 -41 -47 -12 0 18 74 87
216 69 141 86 169 147 231 70 72 125 105 216 129 79 21 134 17 225 -16 46 -16
90 -30 100 -30 36 0 44 -14 27 -53 -40 -97 -5 -217 91 -313 35 -35 67 -64 72
-64 5 0 24 47 42 105 38 121 38 196 0 247 -27 36 -15 36 80 -2 96 -38 107 -38
82 -2 -11 15 -29 46 -41 69 -11 23 -31 47 -42 54 -12 6 -76 20 -143 30 -137
22 -213 42 -270 71 -62 32 -30 39 149 32 183 -7 217 -1 381 67 103 43 106 43
196 10 77 -28 178 -28 251 0 30 12 98 53 150 93 53 39 103 76 113 81 26 16
-175 39 -291 33 l-96 -5 50 28 c45 26 99 84 88 95 -2 2 -41 -9 -86 -26 -45
-16 -84 -30 -86 -30 -3 0 0 12 6 27 19 51 61 95 113 118 60 27 192 44 180 23
-28 -48 -72 -109 -102 -140 l-36 -38 53 0 c33 0 90 -13 159 -36 117 -39 188
-42 249 -10 35 18 168 151 168 168 0 17 -35 19 -42 2 -4 -11 -39 -14 -186 -14
l-181 0 33 34 c19 19 48 42 65 51 l31 16 -30 -6 c-27 -6 -21 2 53 77 45 46 79
87 76 91 -4 4 2 7 14 7 12 0 22 3 22 8 -1 10 -121 91 -183 123 l-50 26 54 30
c62 35 128 103 158 161 l21 41 -28 3 c-15 2 -44 -5 -64 -15 -39 -18 -173 -51
-243 -60 l-40 -5 30 13 c28 13 29 14 6 15 -13 0 -46 -14 -73 -31 -27 -17 -51
-29 -54 -27 -9 10 75 106 118 136 56 38 123 72 143 72 8 0 15 5 15 11 0 7 -18
10 -50 7 -28 -1 -50 -1 -50 2 0 3 15 22 33 43 29 35 40 40 107 52 99 17 176
47 224 87 38 31 96 112 96 132 0 6 -5 3 -11 -6 -13 -24 -49 -23 -49 0 0 11
-14 24 -39 35 -37 17 -41 17 -90 -3 -28 -11 -74 -31 -102 -45 -27 -14 -55 -23
-60 -19 -14 8 -5 52 20 104 20 41 13 43 -26 7 l-23 -20 -1 29 -1 29 -10 -30
c-9 -30 -64 -76 -109 -94 -37 -13 -69 3 -69 36 -1 26 -3 25 -24 -17 -29 -55
-70 -100 -91 -100 -13 0 -13 5 4 39 17 33 61 172 61 192 0 8 -113 -19 -155
-37 -35 -15 -43 -11 -24 13 12 15 12 16 -5 10 -14 -6 -17 -4 -12 8 8 21 -4 19
-32 -7 l-24 -23 7 25 c26 85 92 147 195 180 l75 25 -42 3 -41 3 28 57 c16 31
31 71 35 87 l6 30 -28 -32 c-15 -18 -35 -33 -43 -35 -24 -4 -60 25 -60 49 0
22 -1 22 -62 -11 -35 -19 -72 -35 -83 -36 -49 -5 -46 3 10 31 33 16 49 26 35
22 -14 -3 -68 -7 -120 -9 -66 -1 -83 0 -55 6 l40 7 -47 2 c-35 1 -48 5 -48 16
0 8 -5 15 -11 15 -7 0 -6 9 4 23 20 31 47 123 47 160 0 41 -13 26 -26 -31 -9
-37 -12 -41 -13 -19 -1 23 -14 60 -26 75 -2 2 -19 -4 -38 -12 l-36 -15 5 52 6
52 -21 -33 c-17 -26 -25 -31 -35 -23 -9 7 -19 6 -36 -6 -20 -14 -19 -11 9 30
32 48 31 58 -3 32 -13 -10 -23 -12 -32 -5 -8 8 -32 3 -79 -15 -37 -14 -69 -25
-71 -25 -10 0 38 106 58 129 19 21 20 23 3 11 -11 -8 -35 -27 -52 -44 l-33
-30 0 47 c0 37 7 57 30 89 17 22 30 46 29 52 0 6 -3 6 -6 -2 -2 -6 -8 -10 -12
-8 -4 3 -31 6 -59 7 -29 2 -52 4 -52 6 0 2 8 16 17 31 l17 27 -26 -24 -27 -23
-3 43 -4 44 -8 -42 c-6 -32 -13 -43 -26 -43 -10 0 -20 6 -23 13 -4 10 -7 10
-18 0 -20 -20 -39 -15 -40 10 -1 12 -5 2 -10 -23 -5 -25 -7 -62 -3 -82 7 -43
28 -51 121 -47 l58 3 0 -37 c-1 -20 -2 -64 -3 -97 l-2 -60 -96 0 -95 0 2 110
c1 60 -1 113 -5 117 -3 4 -27 -13 -51 -37 -38 -37 -45 -50 -45 -83 0 -42 -4
-41 63 -20 13 4 17 -1 17 -24 0 -40 -29 -135 -46 -153 -16 -16 -152 -41 -159
-29 -3 4 2 12 10 19 19 16 19 30 1 30 -8 0 -30 -21 -48 -46 -39 -55 -46 -46
-18 29 29 77 51 101 116 128 50 21 55 25 49 49 -9 36 -24 50 -53 50 -25 0 -25
2 20 48 48 48 78 104 78 144 0 16 -3 19 -8 10 -9 -13 -70 -13 -78 0 -3 4 -12
4 -21 1 -13 -5 -13 -2 2 23 14 22 9 20 -18 -11 -30 -33 -38 -37 -47 -25 -5 8
-10 24 -10 34 0 25 -12 13 -27 -27 l-11 -32 -1 28 c-1 20 -6 27 -20 27 -11 0
-21 6 -24 13 -2 7 -10 1 -17 -15 -7 -15 -16 -25 -20 -23 -4 2 -13 32 -20 65
-12 59 -12 62 14 109 31 59 33 68 5 40 -14 -14 -27 -18 -42 -14 -28 9 -59 44
-53 61 3 7 1 16 -4 19 -5 3 -21 -13 -35 -35z m-994 -402 c82 -70 100 -96 106
-154 l5 -49 -51 50 c-46 44 -51 47 -42 22 16 -42 13 -52 -9 -32 -17 15 -21 16
-34 2 -17 -16 -55 -12 -68 7 -17 25 3 206 23 206 5 0 37 -24 70 -52z m1241
-30 c2 -92 -2 -120 -20 -151 -15 -26 -21 -28 -52 -22 -19 4 -45 8 -58 9 -23 1
-24 7 -6 63 3 10 -8 3 -26 -17 -17 -19 -38 -34 -47 -32 -20 4 -60 -34 -84 -80
-10 -21 -19 -40 -19 -43 0 -3 29 -5 65 -5 l65 0 0 -90 0 -90 -90 0 -90 0 0 89
c0 80 2 89 20 94 11 3 20 13 20 24 0 58 85 178 166 233 48 33 133 80 145 80 5
0 10 -28 11 -62z m-1586 -138 l154 0 0 -159 0 -158 -161 -7 c-130 -6 -163 -5
-170 6 -5 7 -9 84 -9 172 0 140 2 157 16 152 9 -3 85 -6 170 -6z m1114 -152
c0 -62 -7 -91 -21 -82 -18 11 -67 -7 -72 -27 -3 -10 -10 -19 -17 -19 -6 0 -8
5 -5 10 3 6 -1 10 -9 10 -9 0 -16 11 -18 28 l-4 27 -15 -35 c-9 -19 -23 -41
-32 -49 -15 -12 -17 -9 -17 39 0 67 21 101 113 184 l71 65 13 -47 c7 -26 12
-73 13 -104z m1130 134 c0 -5 -17 -37 -39 -73 -44 -74 -97 -107 -219 -138 -75
-20 -86 -17 -52 14 21 19 26 35 11 35 -5 0 -32 -15 -60 -34 -55 -37 -60 -33
-32 29 34 75 114 125 245 155 88 20 146 25 146 12z m-1672 -304 l-3 -113 -111
-3 -111 -3 -7 38 c-8 49 -8 122 0 162 l7 31 114 0 114 0 -3 -112z m1820 -35
l-3 -98 -95 0 -95 0 -3 92 -3 92 88 4 c48 1 94 4 101 5 10 2 12 -20 10 -95z
m-2826 60 c72 -22 117 -91 57 -86 -22 2 -23 1 -5 -10 42 -28 67 -50 88 -80
l23 -32 -25 18 c-14 9 -68 39 -120 65 -87 43 -97 51 -123 99 l-27 51 42 -5
c24 -3 64 -11 90 -20z m2428 -192 c0 -94 -3 -171 -7 -173 -5 -2 -83 -2 -175 0
l-168 3 0 169 0 170 175 0 175 0 0 -169z m-560 -102 l0 -136 -147 -7 c-115 -5
-148 -4 -155 6 -9 16 -11 166 -2 232 l7 47 148 -3 149 -3 0 -136z m-1342 54
l-3 -78 -77 0 -78 0 0 71 c0 39 3 74 7 77 3 4 40 7 80 7 l74 0 -3 -77z m870
-90 l-3 -128 -135 0 -135 0 -3 128 -3 127 141 0 141 0 -3 -127z m1642 -23
c-29 -80 -58 -130 -93 -162 -19 -17 -43 -15 -32 3 4 5 1 9 -4 9 -18 0 -12 36
10 64 26 33 19 33 -32 1 -46 -30 -220 -108 -226 -102 -5 5 10 17 77 62 30 20
46 34 35 32 -11 -3 -39 -11 -63 -18 -47 -14 -67 -5 -38 17 25 18 17 18 -28 -1
-20 -8 -36 -11 -36 -7 0 18 101 103 145 122 80 34 281 75 307 63 4 -2 -6 -40
-22 -83z m-2082 -32 l-3 -93 -92 -3 -93 -3 0 96 0 95 95 0 96 0 -3 -92z m-702
41 c-3 -17 -6 -60 -6 -95 l0 -64 -92 0 -93 0 -2 95 -3 95 101 0 102 0 -7 -31z
m-430 1 l74 0 0 -32 c0 -18 -3 -57 -6 -85 l-7 -53 -83 0 -84 0 0 91 c0 79 2
90 16 85 9 -3 49 -6 90 -6z m782 -156 l52 -7 0 -93 0 -94 -100 0 -100 0 0 100
0 100 48 0 c26 0 71 -3 100 -6z m1035 -253 l11 -74 -38 -33 c-37 -32 -102 -61
-113 -51 -3 3 0 22 7 41 22 67 4 59 -29 -13 -23 -50 -38 -71 -51 -71 -23 0
-30 19 -30 86 0 57 -11 69 -31 33 -11 -22 -11 -21 -34 7 l-23 29 -10 -40 c-6
-22 -14 -58 -19 -79 -5 -22 -13 -41 -19 -43 -5 -2 -27 35 -48 82 -38 84 -64
121 -52 74 3 -13 3 -18 0 -11 -3 6 -10 9 -16 6 -6 -4 -9 4 -7 17 1 13 -1 31
-4 39 -3 8 -9 33 -13 55 -6 30 -9 34 -12 18 -4 -26 -20 -30 -28 -8 -5 13 23
105 33 105 10 0 92 -56 122 -84 18 -17 51 -57 72 -89 l38 -58 16 34 c22 48 75
107 153 173 l66 56 24 -63 c13 -35 29 -97 35 -138z m897 88 l0 -111 -109 4
-109 3 -6 59 c-3 32 -6 81 -6 107 l0 49 115 0 115 0 0 -111z m-415 -47 l0
-127 -115 -3 c-173 -4 -160 -15 -160 132 0 67 2 125 5 128 3 3 65 4 137 1
l132 -3 1 -128z m1377 66 c-34 -49 -102 -109 -184 -161 -63 -40 -68 -36 -39
21 25 49 54 74 126 110 33 16 71 39 85 51 39 32 43 25 12 -21z m-4260 11 c23
-12 58 -27 79 -34 l38 -14 3 32 3 32 98 3 97 3 0 -96 0 -95 -95 0 c-92 0 -95
1 -101 24 -4 16 -25 34 -65 56 -70 37 -119 77 -119 96 0 19 14 18 62 -7z
m1088 -69 l0 -80 -75 0 -75 0 0 80 0 80 75 0 75 0 0 -80z m-445 49 c90 -17
186 -75 216 -132 12 -22 11 -21 -56 23 -62 41 -73 44 -37 10 19 -17 32 -33 30
-35 -1 -1 -29 5 -60 15 -96 30 -108 32 -102 17 2 -7 25 -24 49 -37 25 -14 45
-28 45 -33 0 -4 4 -6 9 -2 10 6 26 -13 18 -21 -7 -7 -97 38 -97 49 0 4 -4 6
-9 2 -11 -6 -101 35 -101 47 0 4 -7 8 -15 8 -24 0 -66 31 -58 43 3 6 1 7 -5 3
-13 -8 -72 20 -72 34 0 5 33 11 73 13 39 1 81 4 93 5 11 1 47 -3 79 -9z m1100
-111 c34 -40 31 -52 -7 -32 l-33 16 28 -29 c35 -38 35 -50 -2 -24 -16 12 -40
21 -53 21 -14 0 -33 9 -43 20 -10 11 -24 20 -31 20 -16 0 -27 52 -19 89 l6 29
65 -40 c35 -22 75 -54 89 -70z m2145 -27 c0 -54 -3 -126 -6 -160 l-7 -61 -168
0 -169 0 0 160 0 160 175 0 175 0 0 -99z m-2418 -69 c9 -9 5 -12 -18 -12 -20
0 -31 5 -31 15 0 17 31 15 49 -3z m-262 -156 l0 -125 -140 -3 -140 -3 0 128 0
127 140 0 140 0 0 -124z m2087 47 c-4 -38 -7 -85 -7 -105 l0 -38 -110 0 -110
0 0 105 0 105 116 0 117 0 -6 -67z m-709 -130 c-22 -24 -72 -54 -123 -73 l-25
-10 15 38 c19 44 45 74 105 118 l45 33 3 -41 c3 -31 -2 -46 -20 -65z m-830 -1
c28 -40 36 -82 16 -82 -23 0 -91 51 -103 78 -6 13 -11 39 -11 58 l0 36 40 -32
c22 -17 48 -43 58 -58z m1172 -12 l0 -91 -82 3 -83 3 -3 74 c-2 41 -1 80 2 88
4 9 28 13 86 13 l80 0 0 -90z m-2272 54 c23 -7 23 -8 21 -167 0 -88 -3 -166
-6 -174 -4 -10 -44 -13 -184 -13 l-179 0 0 173 c0 96 3 177 7 180 8 9 310 9
341 1z m832 -64 l0 -70 -70 0 -70 0 0 70 0 70 70 0 70 0 0 -70z m2370 -161 l0
-131 -152 3 -153 4 -5 120 c-3 66 -4 123 -2 128 2 4 73 7 158 7 l154 0 0 -131z
m-1499 30 c-6 -45 -11 -92 -11 -104 l0 -22 50 25 c28 14 53 22 56 19 3 -3 -13
-29 -36 -58 -35 -48 -71 -114 -147 -279 l-21 -45 -12 30 c-19 47 -15 152 9
245 21 81 109 285 119 276 2 -3 -1 -42 -7 -87z m-421 -118 c11 -62 12 -137 1
-165 -6 -17 -14 -11 -53 40 -25 32 -56 68 -68 79 l-23 20 7 -40 c4 -22 9 -51
12 -65 2 -14 1 -18 -3 -10 -3 8 -12 20 -20 25 -12 9 -33 95 -33 136 0 18 2 19
38 3 20 -9 48 -19 61 -22 24 -5 24 -4 17 49 -3 30 -9 74 -11 99 l-5 45 35 -70
c19 -38 39 -94 45 -124z m2480 143 c36 -16 66 -35 67 -41 4 -18 -114 -33 -267
-33 l-144 0 30 31 c79 84 191 99 314 43z m-2820 -79 c59 -12 87 -32 104 -76 9
-23 15 -44 12 -47 -3 -2 -22 10 -42 28 -21 18 -62 48 -91 67 -54 34 -67 48
-35 39 9 -2 33 -8 52 -11z m1057 -30 c-43 -25 -96 -58 -117 -75 -21 -16 -41
-30 -45 -30 -12 0 49 102 70 116 19 12 100 30 150 33 11 0 -15 -19 -58 -44z
m-1559 14 c12 -5 22 -15 22 -23 0 -8 3 -22 7 -32 6 -15 2 -15 -24 4 -18 12
-51 34 -75 48 l-43 25 45 -7 c25 -3 55 -10 68 -15z m2096 -8 c-29 -15 -66 -38
-83 -50 l-31 -22 0 23 c0 54 32 73 125 76 l40 2 -51 -29z m-1075 -200 c33
-140 102 -559 108 -653 7 -101 -16 -245 -28 -178 l-6 35 -2 -35 c-5 -73 -18
-77 -25 -7 -3 37 -9 97 -13 135 l-8 67 -6 -85 c-3 -47 -7 -76 -8 -65 -2 11 -7
-16 -12 -60 -11 -116 -31 -156 -23 -48 3 46 10 98 15 115 19 66 9 415 -18 638
l-8 65 -6 -80 c-5 -73 -6 -68 -8 50 -1 112 -12 201 -36 305 -3 14 10 -6 29
-44 19 -37 44 -107 55 -155z m-795 179 c142 -23 267 -93 388 -218 81 -83 114
-138 147 -245 23 -76 44 -254 39 -339 l-3 -57 -45 57 c-25 32 -119 116 -210
189 -198 158 -325 286 -364 364 -15 31 -34 94 -41 140 -8 46 -17 94 -20 107
-5 19 -2 22 17 18 13 -3 54 -10 92 -16z m1655 -94 c-32 -193 -92 -269 -424
-534 -66 -53 -144 -118 -172 -146 l-53 -49 0 144 c0 210 35 317 142 434 53 58
194 162 272 200 52 25 162 52 222 54 l30 1 -17 -104z m-2036 39 c75 -26 158
-75 186 -111 11 -14 23 -44 26 -67 17 -101 46 -168 111 -254 36 -47 63 -87 61
-89 -2 -2 -44 10 -93 27 -133 45 -168 50 -254 33 -41 -8 -93 -14 -115 -14 -63
0 -173 27 -240 59 -62 28 -62 29 -97 112 -59 142 -59 142 39 48 135 -130 224
-157 393 -119 56 12 108 19 128 15 32 -6 32 -5 26 22 -17 80 -38 142 -59 178
-29 50 -109 126 -161 154 -21 11 -46 25 -54 31 -19 14 6 8 103 -25z m2398 -5
c-131 -69 -200 -154 -226 -276 -19 -90 -20 -87 14 -79 17 3 65 -3 117 -15 157
-39 257 -12 379 102 42 39 80 78 85 88 8 16 5 17 -38 8 -88 -16 -286 -38 -346
-38 -52 0 -58 2 -46 14 8 8 31 19 50 24 l35 10 -35 1 c-19 0 -55 -8 -79 -19
-60 -28 -70 -25 -36 10 90 94 229 110 417 49 l106 -35 -40 -94 c-55 -130 -65
-142 -147 -174 -114 -44 -185 -52 -309 -33 -118 19 -127 18 -266 -32 -49 -17
-93 -30 -99 -28 -5 1 19 36 53 77 72 86 95 128 114 207 7 32 20 73 29 90 29
55 163 139 270 168 79 21 79 18 -2 -25z m-424 -324 c-20 -30 -99 -117 -175
-193 -76 -77 -141 -147 -145 -156 -4 -10 -12 -16 -18 -15 -26 6 -184 -235
-209 -317 -6 -22 -14 -47 -16 -55 -3 -8 -5 -17 -4 -19 1 -2 -2 -7 -7 -10 -6
-3 -26 -56 -46 -117 -20 -62 -52 -138 -71 -170 -42 -70 -116 -260 -140 -361
-10 -40 -24 -77 -32 -84 -8 -6 -14 -18 -14 -25 0 -8 -4 -14 -10 -14 -5 0 -10
6 -10 14 0 28 21 171 27 186 3 8 7 17 8 20 20 66 23 86 16 93 -11 11 -43 -66
-76 -178 -14 -49 -28 -91 -30 -94 -11 -10 -12 7 -5 54 5 28 9 68 9 90 -1 40
-1 40 -10 10 -5 -16 -21 -82 -36 -145 -15 -64 -38 -130 -50 -149 -28 -41 -28
-38 -2 113 40 240 73 311 240 516 107 132 130 173 194 335 76 194 116 248 322
437 93 84 202 185 243 225 41 39 77 70 79 68 2 -3 -12 -29 -32 -59z m-1412
-152 c221 -190 300 -283 371 -438 40 -88 54 -153 52 -246 0 -47 -3 -72 -5 -55
-3 16 -9 33 -14 36 -5 3 -18 38 -29 78 -40 143 -162 352 -268 458 -34 34 -62
64 -62 68 0 8 -5 13 -125 120 -111 100 -119 108 -141 149 -18 33 -9 26 221
-170z m1052 -256 c-13 -18 -35 -52 -47 -75 -24 -44 -42 -54 -19 -11 24 46 82
129 86 124 3 -3 -6 -20 -20 -38z m-198 -1176 c11 -33 30 -116 41 -184 20 -121
37 -197 59 -250 19 -50 2 -30 -30 35 -17 34 -35 64 -39 67 -19 12 -90 319
-104 450 l-6 55 29 -56 c16 -31 39 -83 50 -117z m45 -510 c23 -64 30 -94 22
-99 -6 -3 -8 -2 -3 2 4 5 1 15 -7 24 -21 25 -147 419 -145 457 0 10 23 -51 50
-136 27 -85 65 -197 83 -248z m-185 -186 c28 -109 93 -292 166 -469 55 -136
56 -169 1 -72 -25 44 -46 86 -46 93 0 6 -4 12 -8 12 -5 0 -14 10 -21 23 -11
22 -11 22 -6 -3 6 -28 -69 124 -79 161 -6 21 -5 21 9 -3 24 -43 25 -33 1 26
-13 34 -24 50 -29 42 -5 -6 -5 5 -2 24 4 24 3 31 -3 21 -7 -10 -13 1 -21 40
-22 111 -41 321 -21 229 7 -32 8 -30 8 20 0 127 5 146 13 56 5 -49 22 -139 38
-200z m-495 163 c-41 -128 -118 -228 -275 -354 -13 -11 -36 -35 -51 -53 -58
-70 -18 35 45 117 135 179 231 285 196 219 -6 -12 -34 -52 -61 -86 -27 -35
-47 -66 -44 -69 14 -14 106 100 151 189 27 53 51 95 53 93 2 -1 -5 -27 -14
-56z m244 -39 c-25 -106 -29 -120 -38 -115 -6 4 -10 2 -10 -4 0 -6 -17 -45
-37 -88 -21 -43 -38 -84 -39 -90 -2 -30 -5 -34 -16 -27 -7 4 -8 3 -4 -4 11
-18 -39 -95 -136 -209 l-89 -105 7 44 c11 69 27 100 119 222 92 123 154 224
212 348 21 43 38 76 39 75 2 -2 -2 -23 -8 -47z m343 -106 c81 -165 156 -236
366 -346 100 -53 203 -125 203 -142 0 -7 -179 68 -262 109 -96 48 -146 84
-214 157 -83 89 -127 186 -158 343 -5 29 -5 29 5 5 6 -14 33 -70 60 -126z
m-3816 -233 c7 -12 -12 -24 -25 -16 -11 7 -4 25 10 25 5 0 11 -4 15 -9z m7255
-6 c0 -8 -9 -15 -20 -15 -11 0 -20 7 -20 15 0 8 9 15 20 15 11 0 20 -7 20 -15z
m-3587 -358 c32 -45 71 -98 87 -117 29 -34 29 -37 34 -185 3 -82 2 -205 -1
-272 l-6 -123 -57 0 c-54 0 -58 -2 -82 -35 l-25 -35 -40 34 c-33 29 -49 35
-94 38 l-54 3 -3 293 -2 293 86 95 c48 52 90 94 93 93 3 0 32 -37 64 -82z
m3265 -50 c2 -12 -3 -17 -17 -17 -12 0 -21 6 -21 13 0 31 32 34 38 4z m-6613
4 c7 -12 -12 -24 -25 -16 -11 7 -4 25 10 25 5 0 11 -4 15 -9z m603 -279 c2 -7
-6 -12 -17 -12 -21 0 -27 11 -14 24 9 9 26 2 31 -12z m5429 2 c5 -15 -28 -27
-40 -15 -5 5 -6 14 -2 21 8 13 37 9 42 -6z m-6017 -2 c0 -15 -11 -21 -27 -15
-12 5 -12 7 -1 14 17 11 28 11 28 1z m6590 -5 c0 -8 -3 -17 -7 -20 -9 -9 -34
13 -27 24 8 14 34 11 34 -4z m-621 -236 c12 -22 -6 -35 -29 -21 -11 7 -11 11
-1 24 17 20 18 20 30 -3z m-5640 -15 c5 -27 -26 -48 -50 -35 -19 10 -25 39
-12 53 14 14 58 1 62 -18z m311 9 c0 -16 -35 -21 -44 -6 -8 12 4 21 26 21 10
0 18 -7 18 -15z m5645 -15 c0 -20 -6 -26 -26 -28 -30 -4 -46 22 -28 45 20 23
54 12 54 -17z m-4232 -354 c7 -16 -1 -26 -20 -26 -7 0 -13 9 -13 20 0 23 25
27 33 6z m2487 -12 c0 -8 -9 -14 -20 -14 -22 0 -28 26 -7 33 16 6 27 -1 27
-19z m-2400 -425 c13 -24 -10 -69 -36 -69 -45 0 -71 49 -42 78 20 20 66 15 78
-9z m2348 9 c29 -29 7 -78 -35 -78 -27 0 -47 33 -39 66 5 18 13 24 34 24 15 0
33 -5 40 -12z m-1178 -228 c22 -22 25 -42 10 -71 -12 -22 -59 -26 -78 -7 -20
20 -14 65 10 82 29 20 34 20 58 -4z m-919 -50 c22 -12 26 -59 7 -78 -7 -7 -21
-12 -33 -12 -46 0 -62 57 -23 84 27 19 24 19 49 6z m1839 -16 c10 -11 11 -23
4 -42 -8 -22 -16 -27 -43 -27 -43 0 -60 23 -43 59 14 30 61 36 82 10z m-916
-670 c20 -19 20 -34 0 -62 -29 -41 -84 -23 -84 28 0 14 5 31 12 38 17 17 54
15 72 -4z m-936 -246 c28 -28 7 -78 -33 -78 -27 0 -45 18 -45 45 0 27 18 45
45 45 12 0 26 -5 33 -12z m1867 -8 c15 -17 16 -24 7 -45 -21 -45 -92 -29 -92
20 0 45 53 61 85 25z m-1302 -42 c24 -28 21 -65 -8 -93 -27 -28 -42 -30 -80
-13 -47 21 -46 96 3 122 32 18 60 12 85 -16z m767 2 c51 -51 -11 -141 -73
-109 -29 15 -37 28 -37 59 0 63 67 93 110 50z m-373 -352 c35 -33 32 -89 -8
-122 -38 -32 -70 -33 -105 -2 -21 17 -28 33 -28 59 0 76 87 116 141 65z"/>
<path d="M4293 6855 c12 -116 82 -215 166 -235 36 -8 181 -12 181 -5 0 1 -9
28 -20 61 -49 141 -131 205 -294 228 l-39 5 6 -54z"/>
<path d="M5890 6839 c-109 -97 -182 -129 -215 -95 -9 9 -13 21 -9 28 6 9 3 9
-9 -1 -14 -11 -57 -125 -57 -152 0 -12 127 -11 172 1 51 15 94 53 124 112 20
40 48 138 40 145 -1 1 -22 -16 -46 -38z"/>
<path d="M5181 4324 c0 -11 3 -14 6 -6 3 7 2 16 -1 19 -3 4 -6 -2 -5 -13z"/>
<path d="M5070 3563 c-15 -20 -20 -35 -15 -53 4 -14 10 -56 14 -95 7 -58 5
-72 -8 -80 -105 -68 -104 -181 2 -234 45 -22 51 -23 89 -10 22 7 53 26 69 42
24 24 29 37 29 77 0 52 -31 103 -71 115 -19 6 -20 13 -16 83 2 43 8 89 12 104
6 21 2 32 -18 52 -33 33 -60 33 -87 -1z m78 -325 c30 -30 0 -75 -42 -64 -29 7
-40 31 -26 57 12 21 50 25 68 7z"/>
<path d="M4530 9159 c0 -15 30 -76 50 -101 14 -19 19 -35 15 -50 -3 -13 7 0
24 27 35 57 38 77 15 100 -12 11 -26 14 -51 9 -25 -5 -38 -3 -44 7 -5 8 -9 11
-9 8z"/>
<path d="M4004 8988 c11 -7 36 -28 57 -46 21 -19 43 -31 48 -28 5 4 13 1 17
-5 4 -8 3 -9 -4 -5 -24 14 -11 -2 13 -18 l25 -16 0 37 c0 21 -4 33 -8 28 -8
-12 -67 -5 -64 8 1 4 0 7 -3 7 -3 0 -27 11 -53 25 -26 14 -38 20 -28 13z"/>
<path d="M8160 8305 c0 -18 5 -25 20 -25 15 0 20 7 20 25 0 18 -5 25 -20 25
-15 0 -20 -7 -20 -25z"/>
<path d="M2770 8311 c-8 -6 -18 -7 -24 -4 -13 8 0 -50 20 -93 27 -56 68 -78
151 -83 l73 -3 0 56 c0 31 -4 56 -10 56 -5 0 -10 -7 -10 -15 0 -10 -11 -4 -31
17 -27 30 -29 30 -14 6 10 -16 13 -28 7 -28 -6 0 -12 4 -14 9 -5 15 -106 91
-120 91 -7 0 -20 -4 -28 -9z"/>
<path d="M7250 8274 c-6 -14 -10 -53 -10 -86 l0 -60 70 4 c60 3 73 7 101 33
31 30 75 112 65 122 -3 3 -8 -6 -12 -21 -5 -20 -12 -26 -34 -26 -16 0 -35 3
-44 6 -13 5 -12 9 7 25 12 10 18 18 13 19 -12 0 -76 -39 -105 -64 l-24 -21 7
27 c3 14 9 34 13 45 6 17 5 16 -17 -2 l-23 -20 5 23 c8 30 0 28 -12 -4z"/>
<path d="M2136 8071 c-3 -5 1 -12 10 -15 9 -4 14 -13 10 -21 -3 -9 0 -15 9
-15 10 0 15 10 15 30 0 23 -5 30 -19 30 -11 0 -22 -4 -25 -9z"/>
<path d="M8172 7650 c0 -14 2 -19 5 -12 2 6 2 18 0 25 -3 6 -5 1 -5 -13z"/>
<path d="M8183 7260 c0 -36 2 -50 4 -32 2 17 2 47 0 65 -2 17 -4 3 -4 -33z"/>
<path d="M2410 7290 c0 -3 19 -37 43 -75 33 -56 51 -75 89 -93 56 -28 96 -23
163 19 l45 28 -23 25 c-12 14 -35 41 -51 61 -16 21 -35 34 -42 31 -8 -3 -14 0
-14 6 0 7 -4 7 -13 -1 -8 -6 -16 -8 -19 -6 -7 7 -178 11 -178 5z"/>
<path d="M7671 7271 c-55 -19 -87 -18 -74 3 19 31 -46 -27 -75 -67 l-33 -46
44 -25 c78 -46 165 -32 221 35 25 29 66 100 66 114 0 12 -99 3 -149 -14z"/>
<path d="M1843 7235 c0 -22 2 -30 4 -17 2 12 2 30 0 40 -3 9 -5 -1 -4 -23z"/>
<path d="M1928 7253 c7 -3 16 -2 19 1 4 3 -2 6 -13 5 -11 0 -14 -3 -6 -6z"/>
<path d="M8390 7221 c0 -11 -8 -22 -17 -24 -14 -4 -12 -5 5 -6 17 -1 22 4 22
24 0 14 -2 25 -5 25 -3 0 -5 -9 -5 -19z"/>
<path d="M2035 7210 c-3 -5 -1 -10 4 -10 6 0 11 5 11 10 0 6 -2 10 -4 10 -3 0
-8 -4 -11 -10z"/>
<path d="M1868 7203 c7 -3 16 -2 19 1 4 3 -2 6 -13 5 -11 0 -14 -3 -6 -6z"/>
<path d="M2210 7110 c0 -25 4 -30 24 -30 19 0 25 6 28 30 4 27 2 30 -24 30
-24 0 -28 -4 -28 -30z"/>
<path d="M1766 7004 c-10 -27 -7 -34 19 -34 20 0 25 5 25 25 0 29 -34 36 -44
9z"/>
<path d="M8420 6995 c0 -20 5 -25 25 -25 20 0 25 5 25 25 0 20 -5 25 -25 25
-20 0 -25 -5 -25 -25z"/>
<path d="M2043 6881 c-24 -4 -45 -10 -49 -14 -9 -9 74 -161 119 -215 98 -119
198 -145 376 -100 47 12 88 23 90 25 3 2 -8 17 -24 33 -16 16 -56 71 -89 122
-42 63 -75 102 -106 123 -43 29 -50 30 -160 32 -63 1 -134 -2 -157 -6z"/>
<path d="M7905 6874 c-55 -20 -109 -75 -162 -167 -25 -43 -60 -92 -77 -108
l-31 -29 25 0 c14 0 59 -9 100 -20 92 -24 127 -25 204 -3 51 14 71 27 121 77
55 56 165 230 153 242 -3 2 -32 9 -64 14 -85 14 -222 11 -269 -6z"/>
<path d="M2604 6517 c-22 -8 -67 -28 -100 -46 -63 -33 -194 -128 -194 -139 1
-10 138 -94 190 -116 52 -23 196 -27 244 -7 16 6 30 10 33 8 2 -2 -4 -21 -13
-43 -9 -21 -25 -65 -35 -98 l-18 -59 102 5 c141 7 217 37 276 110 25 32 65
122 76 174 l6 32 -53 7 c-45 6 -61 15 -113 62 -32 30 -88 68 -123 85 -55 27
-78 32 -151 35 -52 2 -102 -2 -127 -10z"/>
<path d="M7377 6506 c-63 -26 -74 -34 -152 -107 -41 -39 -61 -49 -108 -59 -55
-11 -58 -13 -53 -36 27 -105 85 -203 141 -236 49 -28 144 -48 232 -48 60 0 83
3 83 13 0 6 -18 52 -40 101 -37 83 -38 88 -17 82 84 -23 145 -28 200 -17 67
14 177 67 227 110 34 29 35 30 15 46 -104 83 -245 159 -278 150 -17 -5 -19 -4
-7 4 13 9 12 11 -5 11 -11 0 -31 3 -45 5 l-25 6 25 -11 c22 -10 23 -13 8 -21
-20 -11 -74 -1 -89 17 -16 20 -45 17 -112 -10z"/>
<path d="M3399 6267 c-93 -35 -144 -89 -199 -213 -17 -37 -29 -68 -28 -69 11
-7 146 -25 190 -25 133 0 199 50 263 199 24 58 43 106 42 108 -2 1 -55 5 -118
8 -83 4 -124 2 -150 -8z"/>
<path d="M6635 6274 c-78 -12 -76 -9 -56 -57 10 -23 26 -64 36 -91 22 -59 65
-110 119 -139 34 -18 57 -22 141 -21 55 0 119 6 142 12 l43 13 -44 87 c-49 96
-100 152 -161 178 -39 16 -162 26 -220 18z"/>
<path d="M3605 5955 c-169 -25 -238 -100 -275 -298 -7 -37 -10 -71 -6 -74 11
-11 185 16 230 35 59 27 119 88 134 138 13 44 15 168 4 195 -6 13 -17 14 -87
4z"/>
<path d="M6536 5914 c-16 -116 1 -181 60 -240 51 -52 132 -83 235 -91 l77 -6
-14 79 c-36 197 -93 267 -238 293 -107 20 -112 18 -120 -35z"/>
<path d="M2830 5801 l0 -80 85 -3 85 -3 0 78 0 77 -32 1 c-18 0 -57 3 -85 5
l-53 5 0 -80z"/>
<path d="M7308 5873 l-78 -4 0 -74 0 -75 85 0 85 0 0 80 c0 44 -3 79 -7 78 -5
-1 -43 -4 -85 -5z"/>
<path d="M7040 5775 c0 -31 3 -35 25 -33 20 2 25 8 25 29 0 24 -15 39 -41 39
-5 0 -9 -16 -9 -35z"/>
<path d="M3140 5770 c0 -27 3 -30 30 -30 27 0 30 3 30 30 0 27 -3 30 -30 30
-27 0 -30 -3 -30 -30z"/>
<path d="M5690 5650 l0 -60 65 0 65 0 0 60 0 60 -65 0 -65 0 0 -60z"/>
<path d="M3920 5585 l0 -65 65 0 65 0 0 65 0 65 -65 0 -65 0 0 -65z"/>
<path d="M6120 5555 l0 -95 105 0 105 0 0 49 c0 26 -3 69 -6 95 l-7 46 -98 0
-99 0 0 -95z"/>
<path d="M3572 5418 l3 -53 58 -3 57 -3 0 56 0 55 -61 0 -60 0 3 -52z"/>
<path d="M6550 5415 c0 -41 2 -45 24 -45 13 0 38 -3 55 -6 l31 -6 0 46 c0 29
-4 45 -10 41 -5 -3 -10 -2 -10 2 0 5 -20 10 -45 11 l-45 2 0 -45z"/>
<path d="M1397 5255 c-4 -104 -7 -292 -7 -416 l0 -225 28 -55 c35 -69 93 -114
169 -129 43 -9 336 -11 1169 -9 612 2 1111 5 1109 7 -2 2 -18 4 -36 4 -39 1
-87 23 -67 31 25 8 3 16 -127 41 -126 25 -355 86 -560 148 -269 81 -829 313
-1030 425 -38 22 -106 59 -150 82 -44 24 -87 49 -95 56 -29 23 -135 80 -145
77 -5 -2 -7 0 -3 3 7 7 -33 45 -47 45 -5 0 -14 -8 -22 -17 -12 -16 -13 -15 -7
10 5 23 3 29 -15 34 -11 3 -18 10 -14 16 3 6 1 7 -5 3 -17 -10 -15 -15 11 -26
16 -7 5 -9 -46 -7 -58 2 -67 0 -67 -15 0 -38 -19 -15 -25 30 -3 26 -7 54 -9
62 -1 8 -5 -70 -9 -175z"/>
<path d="M8692 5383 c-6 -2 -9 -9 -6 -15 3 -5 -2 -8 -12 -6 -13 2 -19 -3 -19
-16 0 -14 -10 -22 -33 -28 -17 -5 -32 -13 -32 -18 0 -6 -3 -9 -8 -7 -4 1 -30
-12 -57 -29 -343 -213 -746 -405 -1124 -535 -227 -78 -556 -168 -871 -239 -52
-11 -113 -29 -135 -39 -40 -18 -39 -18 255 -24 482 -11 1952 -8 2007 4 65 14
123 55 153 109 24 44 25 51 28 275 4 216 -9 596 -16 493 -3 -52 -18 -63 -28
-23 -7 27 -34 35 -34 10 0 -8 -9 -15 -20 -15 -13 0 -20 7 -20 20 0 11 -4 20
-10 20 -5 0 -10 12 -10 26 0 14 4 22 10 19 6 -3 7 1 4 9 -3 9 -7 16 -8 15 0 0
-7 -3 -14 -6z"/>
<path d="M5787 5294 c-4 -4 -7 -20 -7 -36 0 -26 3 -29 28 -26 23 3 27 8 27 33
0 23 -5 31 -20 33 -12 2 -24 0 -28 -4z"/>
<path d="M4400 5262 c0 -24 4 -28 23 -27 16 1 23 9 25 28 3 23 0 27 -22 27
-22 0 -26 -5 -26 -28z"/>
<path d="M4010 5202 c0 -4 16 -6 35 -4 32 4 35 2 35 -23 0 -21 -4 -25 -19 -20
-11 3 -22 1 -26 -5 -4 -6 6 -10 24 -10 29 0 31 3 31 35 0 34 -1 35 -40 35 -22
0 -40 -4 -40 -8z"/>
<path d="M1401 4294 c-27 -35 -26 -59 4 -89 30 -31 73 -32 103 -5 29 27 28 65
-3 95 -33 34 -77 33 -104 -1z m69 -50 c0 -8 -4 -14 -10 -14 -5 0 -10 9 -10 21
0 11 5 17 10 14 6 -3 10 -13 10 -21z"/>
<path d="M1997 4300 c-51 -40 -26 -120 38 -120 51 0 73 31 65 90 -5 43 -64 60
-103 30z m43 -50 c0 -5 -4 -10 -10 -10 -5 0 -10 5 -10 10 0 6 5 10 10 10 6 0
10 -4 10 -10z"/>
<path d="M8152 4297 c-44 -46 -14 -117 48 -117 64 0 91 70 45 115 -30 31 -65
32 -93 2z m58 -47 c0 -5 -4 -10 -10 -10 -5 0 -10 5 -10 10 0 6 5 10 10 10 6 0
10 -4 10 -10z"/>
<path d="M8722 4297 c-29 -30 -28 -62 3 -92 46 -47 125 -19 125 45 0 63 -84
94 -128 47z m66 -39 c7 -7 12 -18 12 -25 0 -8 -7 -6 -20 7 -11 11 -20 22 -20
25 0 9 16 5 28 -7z"/>
<path d="M1711 4284 c-12 -15 -21 -34 -21 -44 0 -26 39 -70 61 -70 56 0 89 52
64 99 -25 49 -72 55 -104 15z"/>
<path d="M8444 4302 c-36 -24 -39 -78 -6 -114 35 -41 105 -6 105 52 0 51 -60
88 -99 62z"/>
<path d="M1948 3929 c-12 -6 -18 -22 -18 -43 0 -59 59 -87 100 -46 53 53 -16
128 -82 89z"/>
<path d="M8200 3920 c-11 -11 -20 -28 -20 -38 0 -31 29 -62 58 -62 69 1 92 78
32 110 -28 15 -48 12 -70 -10z"/>
<path d="M6105 3855 c-14 -13 -25 -31 -25 -39 0 -20 31 -36 71 -36 22 0 42 -9
60 -26 24 -23 26 -29 17 -67 -5 -23 -6 -50 -3 -62 3 -11 39 -49 81 -85 41 -36
141 -132 223 -215 l149 -150 5 -738 5 -738 -30 -15 c-89 -46 -90 -190 -1 -245
50 -31 132 -23 173 16 74 71 58 198 -30 235 l-30 12 0 753 0 752 -213 210
c-138 136 -223 212 -241 217 -27 7 -28 9 -23 50 5 34 2 47 -12 60 -10 9 -22
16 -27 16 -17 1 -54 38 -54 55 0 18 -43 65 -60 65 -6 0 -22 -11 -35 -25z m656
-2255 c21 -12 25 -50 7 -68 -17 -17 -65 -15 -72 4 -10 25 -7 42 10 58 18 19
28 20 55 6z"/>
<path d="M4056 3854 c-34 -33 -12 -74 39 -74 17 0 36 5 43 12 28 28 1 78 -43
78 -13 0 -31 -7 -39 -16z"/>
<path d="M1490 3840 c-29 -29 -26 -74 6 -99 48 -37 106 -17 120 41 14 60 -81
103 -126 58z m67 -56 c-9 -9 -28 6 -21 18 4 6 10 6 17 -1 6 -6 8 -13 4 -17z"/>
<path d="M8645 3846 c-28 -20 -26 -83 4 -107 34 -27 75 -24 100 7 27 35 26 59
-4 89 -27 28 -71 33 -100 11z m60 -46 c3 -5 -1 -10 -10 -10 -9 0 -13 5 -10 10
3 6 8 10 10 10 2 0 7 -4 10 -10z"/>
<path d="M3984 3767 c-46 -30 -49 -35 -48 -75 0 -30 -4 -43 -15 -47 -9 -3
-114 -101 -233 -219 l-218 -213 0 -755 0 -756 -24 -6 c-13 -3 -38 -22 -55 -41
-27 -31 -31 -43 -31 -94 0 -45 5 -65 22 -86 40 -50 121 -70 176 -41 101 53
116 167 31 240 l-41 34 3 696 c1 383 5 714 8 735 5 35 30 64 227 264 l221 224
-4 50 c-5 45 -3 52 21 70 14 12 26 26 26 31 0 24 -20 20 -66 -11z m-456 -2169
c20 -20 14 -56 -12 -73 -29 -19 -54 -10 -62 22 -11 43 44 81 74 51z"/>
<path d="M2573 3648 c-30 -38 -24 -74 14 -89 37 -14 63 5 63 44 0 18 -5 38
-12 45 -16 16 -53 15 -65 0z"/>
<path d="M7602 3648 c-17 -17 -15 -64 4 -82 31 -32 84 -11 84 33 0 48 -57 80
-88 49z"/>
<path d="M1492 3467 c-32 -34 -30 -89 4 -116 54 -42 120 -16 130 51 5 30 2 41
-19 62 -34 34 -85 35 -115 3z m68 -58 c0 -5 -7 -9 -15 -9 -15 0 -20 12 -9 23
8 8 24 -1 24 -14z"/>
<path d="M8625 3470 c-29 -32 -25 -88 9 -116 35 -31 70 -30 101 1 35 34 34 86
-1 114 -34 27 -85 27 -109 1z m75 -60 c0 -5 -4 -10 -9 -10 -6 0 -13 5 -16 10
-3 6 1 10 9 10 9 0 16 -4 16 -10z"/>
<path d="M3165 3310 c-44 -18 -70 -59 -70 -110 0 -57 21 -85 75 -101 55 -17
105 8 130 63 11 24 20 37 20 31 0 -8 14 -13 35 -13 32 0 35 2 35 30 0 25 -4
30 -25 32 -14 0 -31 1 -37 2 -7 1 -18 11 -25 22 -14 24 -71 54 -100 53 -10 0
-27 -4 -38 -9z m53 -79 c21 -13 10 -46 -16 -49 -27 -4 -40 22 -22 43 14 17 20
18 38 6z"/>
<path d="M6967 3309 c-66 -39 -59 -167 13 -204 50 -26 97 -20 136 19 29 29 34
41 34 81 0 40 -5 52 -34 81 -29 29 -40 34 -82 34 -27 0 -57 -5 -67 -11z m96
-91 c8 -12 7 -21 -2 -32 -18 -22 -38 -20 -51 5 -22 40 29 66 53 27z"/>
<path d="M6857 3234 c-13 -13 -7 -55 8 -60 21 -9 47 15 43 40 -3 21 -37 34
-51 20z"/>
<path d="M1781 3154 c-12 -15 -21 -34 -21 -44 0 -31 39 -70 71 -70 58 0 89 67
53 118 -22 32 -76 30 -103 -4z"/>
<path d="M8337 3168 c-28 -22 -32 -69 -7 -101 42 -53 130 -25 130 43 0 17 -9
39 -20 50 -23 23 -77 27 -103 8z"/>
<path d="M8630 3150 c-57 -57 10 -147 81 -109 45 23 40 96 -7 118 -35 16 -51
14 -74 -9z"/>
<path d="M1496 3138 c-9 -12 -16 -30 -16 -39 0 -24 31 -57 60 -64 34 -8 80 27
80 61 0 58 -91 89 -124 42z"/>
<path d="M3308 2965 c-2 -99 -3 -208 -3 -242 0 -54 -2 -62 -17 -58 -10 4 -29
-7 -51 -30 -44 -45 -100 -49 -138 -9 -52 56 -119 69 -176 34 -39 -23 -52 -46
-59 -102 -9 -74 50 -141 124 -141 54 0 99 27 122 73 19 38 23 40 66 40 30 0
54 -7 73 -21 26 -19 33 -20 65 -9 62 20 63 24 65 346 l2 292 -35 4 -36 4 -2
-181z m-284 -397 c15 -25 -4 -53 -35 -53 -25 0 -37 30 -25 61 8 20 46 14 60
-8z m296 7 c0 -8 -9 -15 -20 -15 -11 0 -20 7 -20 15 0 8 9 15 20 15 11 0 20
-7 20 -15z"/>
<path d="M6865 3140 c-3 -6 -6 -128 -6 -273 0 -144 -1 -275 -1 -290 -2 -57 79
-105 126 -74 12 9 47 17 76 18 52 3 53 2 71 -34 23 -44 64 -67 120 -67 35 0
47 6 81 40 39 39 40 42 36 97 -4 49 -9 60 -41 90 -30 27 -45 33 -79 33 -47 0
-100 -27 -118 -59 -8 -16 -21 -21 -53 -21 -35 0 -47 6 -69 30 -18 21 -35 30
-56 30 l-31 0 6 218 c7 247 4 272 -32 272 -13 0 -27 -5 -30 -10z m95 -565 c10
-13 9 -15 -9 -15 -12 0 -21 6 -21 15 0 8 4 15 9 15 5 0 14 -7 21 -15z m304 9
c20 -8 21 -48 1 -64 -21 -17 -65 2 -65 28 0 34 29 50 64 36z"/>
<path d="M2912 3128 c-8 -8 -12 -48 -12 -115 l0 -104 -337 1 -337 1 -78 -79
c-77 -78 -78 -80 -78 -130 0 -48 -2 -52 -38 -72 -22 -12 -46 -35 -55 -50 -23
-38 -22 -107 2 -146 20 -32 74 -64 110 -64 60 0 133 60 146 120 9 43 -11 95
-50 128 -32 26 -33 30 -25 66 6 26 25 55 56 87 l48 49 330 0 330 0 28 27 c28
26 28 28 28 150 0 111 -2 123 -19 133 -25 13 -34 13 -49 -2z m-774 -610 c4
-32 -20 -52 -52 -44 -35 9 -44 45 -17 67 29 23 65 11 69 -23z"/>
<path d="M7262 3118 c-8 -8 -12 -51 -12 -129 l0 -117 31 -26 31 -26 320 0 320
0 58 -51 c44 -38 60 -59 65 -86 6 -33 3 -39 -30 -67 -75 -64 -63 -181 24 -225
66 -34 117 -24 171 34 21 22 25 37 25 85 0 63 -20 96 -77 126 -25 13 -28 20
-28 66 0 51 0 52 -82 130 l-82 78 -328 0 -328 0 0 98 c0 103 -7 122 -45 122
-12 0 -26 -5 -33 -12z m908 -583 c25 -30 -11 -72 -51 -60 -43 14 -30 75 16 75
12 0 28 -7 35 -15z"/>
<path d="M3642 3068 c-19 -19 -14 -56 8 -68 22 -12 60 -5 60 10 0 5 3 15 6 23
12 32 -48 61 -74 35z"/>
<path d="M6530 3060 c-6 -12 -8 -30 -5 -41 5 -16 14 -19 38 -17 27 3 33 8 35
32 6 46 -47 65 -68 26z"/>
<path d="M3122 3018 c-29 -29 -5 -88 36 -88 35 0 52 16 52 50 0 14 -5 31 -12
38 -7 7 -24 12 -38 12 -14 0 -31 -5 -38 -12z"/>
<path d="M7025 3006 c-33 -50 31 -110 75 -71 38 34 18 95 -30 95 -20 0 -35 -8
-45 -24z"/>
<path d="M3639 2963 c0 -4 0 -197 1 -428 l1 -420 48 -50 49 -50 9 -335 c10
-322 15 -376 34 -364 5 3 10 -7 11 -23 3 -49 15 355 17 556 l1 194 -50 53 -50
53 0 408 1 408 -36 3 c-19 2 -35 0 -36 -5z"/>
<path d="M6529 2873 c0 -54 0 -237 1 -407 l1 -309 -51 -52 -51 -52 2 -269 c1
-148 3 -282 4 -299 1 -16 3 -61 5 -100 1 -38 5 -60 7 -47 2 12 11 22 18 22 10
0 15 -16 18 -52 2 -29 4 115 5 319 l2 373 55 65 55 64 0 421 0 420 -35 0 -35
0 -1 -97z"/>
<path d="M1867 2926 c-46 -36 -34 -126 19 -146 36 -14 80 -4 99 23 18 26 20
87 2 111 -17 24 -95 32 -120 12z m65 -78 c-15 -15 -26 -4 -18 18 5 13 9 15 18
6 9 -9 9 -15 0 -24z"/>
<path d="M8252 2917 c-31 -33 -30 -90 4 -124 21 -21 32 -24 62 -20 72 12 104
86 61 141 -28 35 -95 37 -127 3z m88 -57 c0 -12 -28 -25 -36 -17 -9 9 6 27 22
27 8 0 14 -5 14 -10z"/>
<path d="M1495 2855 c-35 -34 -34 -86 1 -114 57 -45 134 -8 134 63 0 68 -86
101 -135 51z m75 -56 c0 -5 -7 -9 -15 -9 -15 0 -20 12 -9 23 8 8 24 -1 24 -14z"/>
<path d="M8631 2863 c-11 -10 -24 -32 -27 -50 -5 -27 -1 -37 24 -63 37 -36 71
-39 108 -7 20 18 27 32 26 58 -2 65 -82 102 -131 62z m55 -70 c-10 -10 -19 5
-10 18 6 11 8 11 12 0 2 -7 1 -15 -2 -18z"/>
<path d="M3136 2834 c-33 -33 -10 -104 33 -104 24 0 51 31 51 58 0 25 -33 62
-54 62 -8 0 -22 -7 -30 -16z"/>
<path d="M7026 2824 c-33 -32 -9 -86 39 -86 49 0 72 53 37 85 -23 21 -56 22
-76 1z"/>
<path d="M4837 2764 c-53 -29 -61 -91 -18 -135 38 -38 87 -39 125 -4 74 68
-18 189 -107 139z m63 -78 c0 -20 -19 -31 -32 -18 -6 6 -7 15 -4 21 10 16 36
13 36 -3z"/>
<path d="M5325 2771 c-63 -26 -80 -106 -31 -147 38 -34 80 -31 118 6 26 27 30
36 25 68 -4 22 -17 46 -32 60 -27 23 -47 26 -80 13z m45 -85 c0 -8 -5 -18 -11
-22 -14 -8 -33 11 -25 25 10 16 36 13 36 -3z"/>
<path d="M2625 2730 c-4 -6 -4 -165 0 -353 l7 -342 -39 -18 c-52 -23 -76 -60
-80 -121 -5 -65 21 -110 80 -136 55 -26 85 -25 137 3 101 53 107 200 10 255
l-30 17 -2 350 -3 350 -37 3 c-20 2 -39 -2 -43 -8z m69 -806 c21 -21 20 -47
-3 -68 -26 -24 -52 -17 -71 17 -14 27 -14 29 9 48 28 23 45 24 65 3z"/>
<path d="M7527 2733 c-4 -3 -7 -163 -7 -354 0 -328 -1 -348 -18 -353 -10 -4
-31 -20 -47 -36 -36 -38 -46 -119 -21 -172 34 -71 144 -100 214 -58 35 21 71
87 72 129 0 40 -37 104 -75 129 l-35 22 0 350 0 350 -38 0 c-21 0 -42 -3 -45
-7z m73 -813 c25 -25 25 -32 1 -61 -16 -20 -23 -22 -47 -14 -35 12 -43 48 -18
76 22 24 39 24 64 -1z"/>
<path d="M2386 2637 c-34 -34 -34 -80 -1 -112 50 -51 125 -16 125 57 0 41 -22
65 -67 74 -26 5 -37 1 -57 -19z m56 -62 c0 -5 -5 -11 -11 -13 -6 -2 -11 4 -11
13 0 9 5 15 11 13 6 -2 11 -8 11 -13z"/>
<path d="M7765 2648 c-73 -43 -52 -142 30 -142 46 0 75 31 75 79 0 52 -61 89
-105 63z m45 -68 c0 -5 -7 -10 -16 -10 -8 0 -12 5 -9 10 3 6 10 10 16 10 5 0
9 -4 9 -10z"/>
<path d="M3797 2639 c-20 -11 -23 -59 -5 -77 22 -22 57 -14 64 13 3 14 4 31 1
39 -9 23 -40 36 -60 25z"/>
<path d="M6394 2627 c-3 -9 -4 -28 -2 -44 2 -22 8 -28 28 -28 23 0 25 4 25 40
0 34 -3 40 -23 43 -13 2 -24 -3 -28 -11z"/>
<path d="M1729 2571 c-34 -35 -36 -59 -8 -95 16 -20 29 -26 59 -26 71 0 104
76 55 125 -33 33 -70 32 -106 -4z m61 -46 c0 -8 -4 -15 -9 -15 -13 0 -22 16
-14 24 11 11 23 6 23 -9z"/>
<path d="M8400 2580 c-43 -43 -31 -109 26 -130 76 -29 133 86 66 136 -25 20
-69 17 -92 -6z m70 -55 c0 -8 -7 -15 -15 -15 -8 0 -15 7 -15 15 0 8 7 15 15
15 8 0 15 -7 15 -15z"/>
<path d="M4860 2133 c0 -241 3 -448 6 -460 4 -15 14 -23 29 -23 21 0 22 3 28
173 4 94 7 301 7 460 l0 287 -35 0 -35 0 0 -437z"/>
<path d="M5310 2233 c0 -186 3 -389 7 -450 l6 -113 29 0 28 0 0 450 0 450 -35
0 -35 0 0 -337z m40 -540 c0 -7 -4 -13 -10 -13 -5 0 -10 12 -10 28 0 21 2 24
10 12 5 -8 10 -21 10 -27z"/>
<path d="M3262 2407 c-41 -43 -19 -97 39 -97 32 0 69 31 69 58 0 57 -68 82
-108 39z"/>
<path d="M6894 2422 c-43 -29 -34 -91 17 -113 60 -24 103 42 63 99 -15 22 -57
30 -80 14z"/>
<path d="M2371 2384 c-48 -61 -4 -134 79 -134 59 0 89 103 41 141 -36 29 -95
25 -120 -7z m74 -64 c-5 -8 -11 -8 -17 -2 -6 6 -7 16 -3 22 5 8 11 8 17 2 6
-6 7 -16 3 -22z"/>
<path d="M7752 2403 c-21 -8 -44 -62 -36 -86 20 -66 90 -88 134 -42 29 31 32
85 5 115 -17 19 -70 26 -103 13z m61 -68 c1 -5 -6 -11 -15 -13 -11 -2 -18 3
-18 13 0 17 30 18 33 0z"/>
<path d="M4476 2354 c-9 -8 -16 -22 -16 -30 0 -15 43 -30 59 -19 15 8 14 38
-1 53 -16 16 -23 15 -42 -4z"/>
<path d="M5710 2355 c-25 -30 16 -79 46 -54 19 16 18 55 -2 63 -23 9 -30 8
-44 -9z"/>
<path d="M3193 2342 c-13 -2 -23 -6 -24 -10 -1 -4 -2 -91 -4 -194 l-2 -188
-33 -22 c-82 -55 -89 -134 -19 -200 33 -32 47 -38 82 -38 69 0 133 51 137 110
5 57 -1 74 -39 110 l-39 38 -4 185 c-3 200 -8 217 -55 209z m32 -495 c13 -10
16 -21 11 -40 -5 -21 -12 -27 -35 -27 -40 0 -54 35 -25 64 19 19 25 20 49 3z"/>
<path d="M6991 2321 c-7 -12 -11 -91 -11 -200 l0 -181 -26 -16 c-75 -50 -71
-172 9 -219 22 -13 41 -16 80 -12 60 8 102 42 119 98 9 31 8 43 -8 76 -11 21
-33 47 -51 58 l-32 20 -3 195 -3 195 -32 3 c-23 2 -34 -2 -42 -17z m69 -486
c20 -24 3 -55 -30 -55 -20 0 -31 6 -35 20 -8 25 10 50 35 50 10 0 23 -7 30
-15z"/>
<path d="M2939 2311 c-17 -14 -23 -28 -22 -57 3 -100 145 -100 145 1 0 67 -70
99 -123 56z"/>
<path d="M7185 2305 c-30 -30 -32 -64 -4 -99 26 -33 79 -36 109 -6 30 30 27
83 -6 109 -35 28 -69 26 -99 -4z"/>
<path d="M4452 2230 c-13 -5 -30 -26 -38 -45 -13 -32 -13 -39 2 -70 9 -19 20
-35 25 -35 5 0 9 -127 9 -288 l0 -289 -24 -12 c-82 -44 -45 -181 49 -181 47 0
71 14 91 52 19 37 12 88 -16 113 -19 17 -20 32 -20 308 0 286 0 291 22 314 28
30 29 86 2 113 -23 24 -71 33 -102 20z m53 -90 c-5 -8 -11 -8 -17 -2 -6 6 -7
16 -3 22 5 8 11 8 17 2 6 -6 7 -16 3 -22z m-7 -733 c4 -21 -27 -35 -38 -17
-12 19 0 42 19 38 9 -2 17 -11 19 -21z"/>
<path d="M5685 2215 c-34 -33 -33 -84 0 -123 l25 -30 0 -282 0 -282 -25 -30
c-72 -85 23 -196 124 -144 59 31 67 103 16 152 l-35 33 0 280 c0 263 1 283 20
313 28 45 25 75 -9 109 -38 37 -82 39 -116 4z m67 -70 c-12 -22 -27 -2 -18 22
5 12 10 13 17 6 7 -7 8 -17 1 -28z m25 -731 c8 -21 -13 -42 -28 -27 -13 13 -5
43 11 43 6 0 13 -7 17 -16z"/>
<path d="M1950 2200 c-40 -40 -12 -120 41 -120 56 0 89 51 64 99 -23 46 -71
55 -105 21z m55 -50 c3 -5 1 -10 -4 -10 -6 0 -11 5 -11 10 0 6 2 10 4 10 3 0
8 -4 11 -10z"/>
<path d="M8182 2200 c-29 -27 -28 -65 3 -95 31 -32 59 -32 91 1 61 60 -31 152
-94 94z m65 -56 c-9 -9 -28 6 -21 18 4 6 10 6 17 -1 6 -6 8 -13 4 -17z"/>
<path d="M7851 2123 c-40 -38 -45 -62 -21 -101 30 -49 64 -61 108 -37 20 12
39 32 45 47 12 39 -16 93 -55 107 -42 15 -44 15 -77 -16z m69 -68 c-7 -8 -16
-15 -21 -15 -13 0 -11 24 3 38 18 18 35 -3 18 -23z"/>
<path d="M2281 2123 c-12 -10 -24 -34 -27 -54 -8 -50 28 -93 80 -93 45 0 75
27 83 76 4 30 1 41 -20 62 -31 31 -84 35 -116 9z m67 -66 c2 -10 -3 -17 -12
-17 -18 0 -29 16 -21 31 9 14 29 6 33 -14z"/>
<path d="M2905 2075 c-30 -30 -32 -73 -5 -107 16 -21 20 -44 22 -129 l3 -104
28 -1 27 -1 0 102 c0 98 1 103 25 119 32 21 48 52 41 82 -16 63 -96 85 -141
39z m73 -52 c-5 -25 -28 -28 -28 -4 0 12 6 21 16 21 9 0 14 -7 12 -17z"/>
<path d="M7206 2079 c-39 -31 -36 -78 9 -123 l35 -35 0 -96 c0 -58 4 -95 10
-95 6 0 8 11 4 27 -6 23 -4 25 14 21 27 -8 32 7 32 100 1 52 5 83 15 96 23 30
18 74 -10 101 -30 31 -73 32 -109 4z m74 -55 c0 -8 -7 -14 -15 -14 -15 0 -21
21 -9 33 10 9 24 -2 24 -19z"/>
<path d="M3326 2074 c-23 -22 -20 -41 10 -61 31 -20 57 -9 62 26 7 45 -40 67
-72 35z"/>
<path d="M6842 2078 c-13 -13 -16 -47 -4 -64 21 -32 82 -13 82 26 0 39 -51 65
-78 38z"/>
<path d="M6281 2001 c-25 -25 -17 -59 15 -67 14 -4 31 -1 39 6 21 18 19 57 -4
70 -26 13 -28 13 -50 -9z"/>
<path d="M3887 2004 c-12 -12 -8 -51 7 -64 35 -28 93 11 70 48 -11 17 -64 29
-77 16z"/>
<path d="M3604 1906 c-11 -30 1 -71 25 -82 38 -19 51 -8 51 47 l0 49 -35 0
c-22 0 -38 -6 -41 -14z"/>
<path d="M6567 1914 c-13 -13 -7 -71 7 -84 8 -6 25 -10 38 -8 20 3 23 9 23 48
0 43 -1 45 -30 48 -17 2 -34 0 -38 -4z"/>
<path d="M3912 1838 c-25 -25 -4 -78 32 -78 10 0 36 32 36 45 0 17 -27 45 -44
45 -6 0 -17 -5 -24 -12z"/>
<path d="M6271 1836 c-8 -10 -11 -26 -7 -42 5 -20 12 -25 33 -22 14 2 31 11
37 21 23 36 -36 76 -63 43z"/>
<path d="M4302 1688 c-27 -27 -4 -78 37 -78 14 0 41 29 41 45 0 35 -53 58 -78
33z"/>
<path d="M5872 1688 c-27 -27 -4 -78 37 -78 14 0 41 29 41 45 0 35 -53 58 -78
33z"/>
<path d="M3952 1678 c-7 -7 -12 -20 -12 -29 0 -19 35 -49 57 -49 16 0 43 28
43 45 0 36 -62 59 -88 33z"/>
<path d="M6208 1666 c-9 -22 -8 -29 7 -46 35 -38 79 -16 73 37 -2 23 -8 29
-35 31 -27 3 -35 -1 -45 -22z"/>
<path d="M7073 1590 c-48 -19 -58 -95 -18 -135 50 -51 135 -18 135 52 0 45 -9
62 -41 78 -32 17 -44 18 -76 5z m57 -75 c0 -19 -20 -29 -32 -17 -8 8 -7 16 2
26 14 17 30 12 30 -9z"/>
<path d="M3060 1563 c-43 -55 -5 -133 64 -133 62 0 95 50 74 112 -20 56 -101
68 -138 21z m84 -42 c3 -5 -1 -14 -10 -21 -11 -10 -18 -10 -27 -1 -9 9 -9 14
3 21 19 12 27 12 34 1z"/>
<path d="M4856 1524 c-23 -23 -20 -51 8 -69 45 -30 91 20 59 64 -17 25 -46 27
-67 5z"/>
<path d="M5313 1533 c-23 -9 -15 -61 11 -78 33 -22 66 -5 66 33 0 44 -33 63
-77 45z"/>
<path d="M3951 1428 c-73 -27 -63 -125 14 -144 59 -15 106 63 68 114 -24 32
-51 42 -82 30z"/>
<path d="M6210 1410 c-25 -25 -27 -81 -2 -102 9 -8 30 -18 45 -22 23 -5 34 -1
57 23 35 35 38 59 9 95 -26 33 -79 36 -109 6z"/>
<path d="M3443 1280 c-26 -11 -43 -40 -43 -75 0 -38 15 -60 49 -75 60 -24 121
14 121 75 0 66 -61 101 -127 75z m54 -67 c2 -6 -3 -13 -12 -16 -10 -5 -15 0
-15 14 0 21 21 22 27 2z"/>
<path d="M6441 1274 c0 -11 3 -14 6 -6 3 7 2 16 -1 19 -3 4 -6 -2 -5 -13z"/>
<path d="M6694 1266 c-58 -50 -21 -146 55 -146 40 1 62 14 79 47 19 35 14 63
-17 94 -37 36 -79 38 -117 5z m71 -66 c-5 -8 -11 -8 -17 -2 -6 6 -7 16 -3 22
5 8 11 8 17 2 6 -6 7 -16 3 -22z"/>
</g>
</svg>
