<?xml version="1.0" standalone="no"?>
<!DOCTYPE svg PUBLIC "-//W3C//DTD SVG 20010904//EN"
 "http://www.w3.org/TR/2001/REC-SVG-20010904/DTD/svg10.dtd">
<svg version="1.0" xmlns="http://www.w3.org/2000/svg"
 width="1024.000000pt" height="1024.000000pt" viewBox="0 0 1024.000000 1024.000000"
 preserveAspectRatio="xMidYMid meet">

<g transform="translate(0.000000,1024.000000) scale(0.100000,-0.100000)"
fill="#ffffff" stroke="none">
<path d="M3615 8236 c-64 -29 -129 -102 -151 -168 -21 -65 -15 -167 14 -224
24 -47 103 -121 139 -130 l23 -6 0 -323 0 -323 -27 -18 c-170 -110 -450 -383
-602 -586 l-43 -58 -265 0 -264 0 -49 50 c-145 144 -365 56 -364 -146 1 -217
259 -291 384 -109 l31 45 214 0 c118 0 215 -2 215 -4 0 -2 -25 -48 -56 -102
-98 -173 -175 -374 -223 -584 -11 -47 -21 -101 -23 -120 l-3 -35 165 -3 165
-3 101 108 101 107 143 1 143 0 15 -35 c23 -57 78 -116 134 -144 68 -34 180
-37 244 -5 50 24 110 86 132 138 25 59 20 149 -12 214 -93 191 -347 211 -463
36 l-26 -39 -129 0 c-81 0 -128 4 -126 10 2 5 136 146 298 312 l295 303 -253
5 -253 5 94 98 93 97 317 0 317 0 0 -904 0 -904 235 -243 234 -244 1 -307 0
-308 115 0 115 0 0 346 0 346 -132 137 c-73 75 -181 186 -240 247 l-108 111 0
864 0 864 360 0 360 0 0 -444 0 -445 47 -42 48 -41 435 441 c239 243 534 542
655 665 l221 223 90 -67 c49 -37 122 -95 162 -129 l72 -61 -253 -253 -254
-254 -52 17 c-121 40 -252 -33 -282 -157 -21 -88 1 -159 70 -221 89 -81 221
-75 310 14 41 40 61 85 61 136 0 36 11 49 271 303 l272 264 21 -26 c114 -139
157 -195 205 -268 74 -113 180 -303 174 -312 -2 -5 -164 -8 -359 -8 l-354 0 0
-70 0 -70 75 0 75 0 0 -95 0 -95 -445 0 -444 0 -47 30 c-97 61 -210 47 -283
-36 -36 -42 -61 -106 -61 -160 0 -13 -136 -150 -296 -297 l-51 -47 -39 21
c-29 15 -53 19 -95 17 -76 -5 -128 -34 -164 -93 -25 -40 -30 -59 -30 -109 1
-67 16 -104 62 -150 125 -127 328 -56 352 124 6 43 14 53 181 211 l174 166 36
-15 c19 -8 60 -15 91 -15 70 0 137 35 176 94 l26 39 428 0 429 0 0 -335 0
-335 490 0 c270 0 493 0 498 0 4 0 8 47 10 105 l3 104 132 -6 c124 -6 133 -8
151 -31 28 -35 113 -72 166 -72 83 1 162 54 194 132 20 47 20 84 1 139 -55
154 -259 190 -362 64 l-30 -36 -519 -2 -519 -2 0 138 0 139 383 -2 c361 -1
382 0 382 17 0 34 -48 228 -80 322 -105 315 -274 619 -484 871 l-96 115 178
178 177 177 74 0 c93 0 147 28 188 97 114 195 -155 392 -313 228 -44 -45 -70
-117 -59 -164 6 -27 -29 -64 -307 -330 l-56 -54 -89 78 c-48 42 -135 109 -193
147 -58 39 -107 72 -109 74 -2 1 60 72 138 157 l141 153 60 -4 c114 -8 207 55
229 157 37 174 -136 304 -297 222 -71 -36 -104 -97 -104 -188 l0 -63 -167
-172 -166 -171 -40 25 c-76 47 -274 128 -404 165 -72 20 -130 41 -129 45 2 4
66 75 143 158 l139 150 67 -1 c119 -2 190 49 219 159 13 51 2 100 -35 154 -76
111 -258 109 -332 -4 -22 -32 -28 -55 -32 -112 -4 -85 6 -70 -219 -299 -134
-137 -169 -167 -186 -163 -153 42 -591 46 -806 7 -263 -47 -499 -123 -720
-234 -91 -45 -168 -83 -172 -85 -5 -2 -8 109 -8 247 l0 250 43 30 c103 70 142
148 135 263 -6 85 -28 136 -85 190 -83 80 -215 103 -318 54z m1385 -1201 l0
-285 -360 0 -360 0 2 208 3 207 110 37 c168 55 438 110 583 117 l22 1 0 -285z
m515 255 c155 -26 285 -60 423 -109 90 -33 244 -101 261 -117 3 -2 -189 -199
-426 -437 -236 -237 -456 -460 -488 -494 -32 -35 -62 -63 -67 -63 -4 0 -8 119
-8 265 l0 265 140 0 140 0 0 75 0 74 -137 3 -138 3 -3 284 -2 284 92 -6 c51
-4 147 -16 213 -27z m-1459 -527 c-4 -10 -54 -13 -221 -13 -118 0 -215 4 -215
8 0 24 131 123 305 232 l130 81 3 -148 c1 -81 0 -153 -2 -160z m-706 -534 c0
-6 -87 -99 -192 -207 -215 -218 -256 -257 -264 -249 -8 8 109 249 178 365 l60
102 109 0 c74 0 109 -4 109 -11z m4016 -512 c55 -127 71 -117 -190 -117 -123
0 -231 3 -240 6 -13 5 -16 23 -16 93 0 48 3 91 7 95 4 4 97 6 206 4 l198 -3
35 -78z m-4520 -135 c-18 -16 -18 -16 -6 6 6 13 14 21 18 18 3 -4 -2 -14 -12
-24z m4682 -704 l-3 -23 -300 0 -300 0 -3 23 -3 22 306 0 306 0 -3 -22z"/>
<path d="M4527 7123 c-3 -5 -6 -59 -6 -120 l-2 -113 120 0 121 0 0 120 0 120
-114 0 c-63 0 -117 -3 -119 -7z"/>
<path d="M5640 7010 l0 -120 115 0 115 0 0 120 0 120 -115 0 -115 0 0 -120z"/>
<path d="M5112 8240 c-20 -12 -30 -25 -26 -32 4 -6 3 -8 -4 -4 -6 4 -22 -12
-36 -37 -20 -34 -26 -57 -26 -103 0 -43 3 -55 10 -44 8 11 9 9 5 -10 -7 -30
49 -105 72 -96 8 3 12 2 9 -3 -9 -14 89 -34 131 -26 41 7 88 39 79 54 -3 5 1
8 10 7 26 -2 56 48 62 103 4 44 2 53 -19 71 -13 10 -19 19 -12 20 6 0 14 -6
16 -12 4 -9 6 -10 6 -1 1 6 -6 19 -15 27 -8 9 -13 16 -9 16 3 0 1 9 -4 19 -6
10 -34 31 -63 45 -65 33 -138 35 -186 6z m-75 -167 c-3 -10 -5 -2 -5 17 0 19
2 27 5 18 2 -10 2 -26 0 -35z m353 -6 c0 -12 -5 -29 -10 -37 -7 -11 -10 -3
-10 28 0 26 4 41 10 37 6 -3 10 -16 10 -28z"/>
<path d="M2846 7665 c-72 -26 -136 -89 -161 -161 -20 -56 -13 -169 13 -219 61
-118 221 -172 348 -116 55 25 86 50 78 63 -3 4 0 7 8 6 8 -2 12 6 10 22 -1 19
0 21 7 10 17 -25 51 65 51 134 0 73 -15 125 -47 162 -13 16 -21 23 -17 15 5
-10 3 -12 -5 -7 -7 5 -10 11 -7 14 9 9 -15 32 -27 25 -6 -3 -7 -1 -3 5 8 14
-30 36 -46 26 -7 -4 -8 -3 -4 4 17 28 -130 41 -198 17z m124 -3 c0 -4 -15 -6
-34 -4 -19 2 -47 -3 -65 -12 -26 -14 -31 -14 -31 -2 0 8 10 17 23 19 40 8 107
7 107 -1z m-170 -49 c0 -15 -2 -16 -10 -3 -6 10 -10 11 -10 3 0 -7 -5 -13 -11
-13 -8 0 -8 5 1 15 17 20 30 19 30 -2z m-40 -32 c0 -5 -7 -11 -14 -14 -10 -4
-13 -1 -9 9 6 15 23 19 23 5z m-40 -46 c0 -8 -4 -15 -10 -15 -5 0 -7 7 -4 15
4 8 8 15 10 15 2 0 4 -7 4 -15z m-6 -46 c-12 -13 -20 -16 -22 -9 -3 7 2 16 9
21 25 16 32 9 13 -12z m3 -148 c-5 -44 -3 -51 26 -84 38 -42 49 -72 14 -37
-39 41 -60 79 -67 126 -6 39 -5 44 13 44 18 0 19 -5 14 -49z m118 -152 c11
-17 -1 -21 -15 -4 -8 9 -8 15 -2 15 6 0 14 -5 17 -11z"/>
<path d="M7775 6820 c3 -5 8 -10 11 -10 2 0 4 5 4 10 0 6 -5 10 -11 10 -5 0
-7 -4 -4 -10z"/>
<path d="M7800 6816 c0 -2 7 -7 16 -10 8 -3 12 -2 9 4 -6 10 -25 14 -25 6z"/>
<path d="M7704 6785 c-9 -14 -15 -28 -12 -30 2 -2 12 9 22 25 21 36 13 40 -10
5z"/>
<path d="M7856 6767 c3 -10 9 -15 12 -12 3 3 0 11 -7 18 -10 9 -11 8 -5 -6z"/>
<path d="M7681 6730 c0 -8 4 -22 9 -30 12 -18 12 -2 0 25 -6 13 -9 15 -9 5z"/>
<path d="M7858 6685 c-8 -19 -11 -32 -6 -29 10 7 31 55 25 60 -2 2 -10 -12
-19 -31z"/>
<path d="M7759 6626 c11 -5 31 -4 48 1 25 9 23 10 -20 9 -35 -1 -42 -3 -28
-10z"/>
<path d="M4524 6347 c-2 -7 -3 -62 -2 -123 l3 -109 115 0 115 0 3 123 3 122
-116 0 c-86 0 -117 -3 -121 -13z"/>
<path d="M8048 6313 c6 -2 18 -2 25 0 6 3 1 5 -13 5 -14 0 -19 -2 -12 -5z"/>
<path d="M6876 6221 c-4 -5 3 -7 14 -4 23 6 26 13 6 13 -8 0 -17 -4 -20 -9z"/>
<path d="M6921 6227 c2 -1 13 -9 24 -17 19 -14 19 -14 6 3 -7 9 -18 17 -24 17
-6 0 -8 -1 -6 -3z"/>
<path d="M6872 6104 c9 -9 21 -15 27 -13 6 2 -2 10 -17 17 -25 11 -25 11 -10
-4z"/>
<path d="M2103 5803 c9 -2 25 -2 35 0 9 3 1 5 -18 5 -19 0 -27 -2 -17 -5z"/>
<path d="M2059 5783 c-13 -16 -12 -17 4 -4 16 13 21 21 13 21 -2 0 -10 -8 -17
-17z"/>
<path d="M8060 5730 c-11 -7 -1 -9 32 -8 27 1 42 6 35 10 -17 11 -49 10 -67
-2z"/>
<path d="M4520 5600 l0 -120 120 0 120 0 0 120 0 120 -120 0 -120 0 0 -120z"/>
<path d="M8020 5705 c-7 -8 -9 -15 -6 -15 4 0 0 -10 -8 -22 -19 -26 -21 -42
-5 -32 13 7 42 74 36 80 -2 3 -10 -2 -17 -11z"/>
<path d="M2206 5663 c-6 -14 -5 -15 5 -6 7 7 10 15 7 18 -3 3 -9 -2 -12 -12z"/>
<path d="M2138 5613 c7 -3 16 -2 19 1 4 3 -2 6 -13 5 -11 0 -14 -3 -6 -6z"/>
<path d="M8006 5597 c3 -10 9 -15 12 -12 3 3 0 11 -7 18 -10 9 -11 8 -5 -6z"/>
<path d="M2027 5256 c-86 -23 -157 -118 -157 -209 0 -150 161 -259 298 -202
20 9 53 32 73 51 l36 35 396 -1 397 0 0 105 0 105 -392 0 -391 0 -35 40 c-60
71 -141 98 -225 76z"/>
<path d="M3620 5040 l0 -120 120 0 120 0 0 120 0 120 -120 0 -120 0 0 -120z"/>
<path d="M6333 5100 c-46 -10 -81 -36 -105 -76 l-20 -34 -193 0 -193 0 -134
-122 c-73 -66 -225 -202 -338 -302 -113 -100 -237 -212 -277 -250 l-73 -69 0
-393 0 -394 -232 -2 -233 -3 -3 -303 -2 -302 -28 6 c-15 3 -70 20 -122 38
l-95 31 0 475 0 475 38 3 37 3 0 100 0 99 -56 0 -57 0 -336 -332 c-184 -183
-343 -342 -352 -353 -16 -19 -19 -17 -92 50 l-75 70 190 191 c161 162 196 193
227 198 51 8 96 39 128 87 56 85 27 204 -62 259 -110 68 -264 -2 -281 -128
l-6 -49 -584 -7 -584 -7 -41 35 c-84 72 -207 69 -280 -7 -73 -76 -76 -194 -6
-274 40 -45 82 -63 149 -63 70 0 124 31 163 92 l30 47 200 -2 200 -2 43 -65
c156 -233 237 -335 391 -492 l105 -108 -105 -100 -104 -100 -40 15 c-153 57
-305 -50 -305 -214 0 -116 100 -211 222 -211 115 1 204 75 217 183 6 51 9 54
132 175 l126 123 84 -59 c346 -245 802 -416 1264 -474 106 -13 440 -15 518 -4
l47 7 0 -124 c0 -120 -1 -124 -26 -148 -40 -37 -57 -79 -58 -140 -1 -46 5 -65
29 -104 43 -69 100 -98 182 -93 100 6 173 72 189 170 15 89 -57 195 -149 220
l-47 12 -2 551 -3 550 -167 3 -168 2 0 341 0 341 38 37 c53 51 210 193 323
292 52 46 168 150 257 232 l161 147 107 0 c107 0 108 0 159 -36 67 -45 117
-53 177 -26 156 69 131 286 -37 314 -16 3 -45 2 -62 -2z m-2753 -1167 c0 -4
-64 -72 -142 -150 l-141 -141 -35 41 c-66 79 -182 236 -182 247 0 7 82 10 250
10 138 0 250 -3 250 -7z m486 -911 c-8 -7 -131 63 -255 145 l-114 76 184 177
184 177 3 -285 c1 -157 0 -287 -2 -290z m932 -12 l2 -233 -97 7 c-54 4 -108
10 -120 13 l-23 5 0 225 0 225 118 -4 117 -4 3 -234z m431 205 c1 -16 0 -121
-4 -231 l-7 -202 -95 -7 c-52 -4 -96 -5 -98 -3 -7 7 -18 446 -12 462 6 14 22
16 109 14 l103 -3 4 -30z"/>
<path d="M3310 4781 c-68 -24 -134 -90 -150 -150 l-11 -41 -604 0 -605 0 0
-75 0 -75 606 0 606 0 41 -46 c132 -149 349 -116 430 65 26 59 19 144 -17 205
-66 112 -181 158 -296 117z"/>
<path d="M8067 4604 c-32 -10 -64 -31 -93 -60 l-45 -44 -1009 0 -1010 0 0
-105 0 -104 1009 -3 1009 -3 39 -41 c110 -120 298 -91 374 58 57 112 -15 265
-142 302 -63 19 -70 19 -132 0z"/>
<path d="M5420 3899 l0 -119 115 0 115 0 0 118 0 117 -115 1 -115 1 0 -118z"/>
<path d="M5830 3443 l1 -578 -54 -14 -54 -14 -7 -104 c-4 -56 -5 -107 -2 -112
7 -11 234 54 348 99 121 49 345 161 440 222 309 196 591 470 796 775 54 80
162 274 162 290 0 10 -162 13 -815 13 l-815 0 0 -577z m1250 346 c0 -27 -269
-319 -406 -440 -113 -101 -178 -149 -319 -236 -88 -55 -292 -163 -307 -163 -5
0 -8 191 -8 425 l0 425 520 0 c382 0 520 -3 520 -11z"/>
<path d="M6260 3380 l0 -120 120 0 121 0 -3 118 -3 117 -117 3 -118 3 0 -121z"/>
<path d="M7724 3768 l-19 -23 25 20 c14 11 27 21 29 22 2 2 0 3 -6 3 -5 0 -18
-10 -29 -22z"/>
<path d="M7883 3695 c0 -22 2 -30 4 -17 2 12 2 30 0 40 -3 9 -5 -1 -4 -23z"/>
<path d="M7854 3628 l-19 -23 23 19 c21 18 27 26 19 26 -2 0 -12 -10 -23 -22z"/>
<path d="M2470 3550 c-6 -11 -8 -20 -6 -20 3 0 10 9 16 20 6 11 8 20 6 20 -3
0 -10 -9 -16 -20z"/>
<path d="M7408 3303 c6 -2 18 -2 25 0 6 3 1 5 -13 5 -14 0 -19 -2 -12 -5z"/>
<path d="M7376 3292 c-3 -5 1 -9 9 -9 8 0 12 4 9 9 -3 4 -7 8 -9 8 -2 0 -6 -4
-9 -8z"/>
<path d="M7532 3215 c0 -16 2 -22 5 -12 2 9 2 23 0 30 -3 6 -5 -1 -5 -18z"/>
<path d="M7340 3219 c0 -5 5 -7 10 -4 6 3 10 8 10 11 0 2 -4 4 -10 4 -5 0 -10
-5 -10 -11z"/>
<path d="M7370 3150 c-9 -6 -10 -10 -3 -10 6 0 15 5 18 10 8 12 4 12 -15 0z"/>
<path d="M7159 2741 c11 -7 11 -9 0 -14 -10 -4 -9 -6 4 -6 9 -1 17 6 17 14 0
8 -8 15 -17 15 -14 0 -15 -2 -4 -9z"/>
<path d="M7120 2730 c-8 -5 -12 -12 -9 -15 4 -3 12 1 19 10 14 17 11 19 -10 5z"/>
<path d="M7200 2713 c0 -10 -10 -23 -22 -28 -14 -6 -23 -18 -22 -31 0 -16 -5
-20 -23 -18 -29 3 -29 -2 1 -21 14 -10 34 -13 48 -10 30 8 64 60 47 71 -8 4
-9 3 -5 -4 5 -8 2 -10 -9 -6 -14 6 -14 8 2 19 16 12 16 14 0 29 -16 16 -17 16
-17 -1z"/>
<path d="M7104 2692 c-6 -4 -8 -16 -4 -27 6 -17 7 -16 12 8 3 15 5 27 4 27 0
0 -6 -4 -12 -8z"/>
<path d="M3768 2513 c6 -2 18 -2 25 0 6 3 1 5 -13 5 -14 0 -19 -2 -12 -5z"/>
<path d="M3709 2483 c-13 -16 -12 -17 4 -4 16 13 21 21 13 21 -2 0 -10 -8 -17
-17z"/>
</g>
</svg>
